<?xml version="1.0" encoding="utf-8"?>
<!-- Generator: Adobe Illustrator 24.0.1, SVG Export Plug-In . SVG Version: 6.00 Build 0)  -->
<svg version="1.1" id="Layer_1" xmlns="http://www.w3.org/2000/svg" xmlns:xlink="http://www.w3.org/1999/xlink" x="0px" y="0px"
	 viewBox="0 0 500 435" style="enable-background:new 0 0 500 435;" xml:space="preserve">
<style type="text/css">
	.st0{fill:#EAE5DE;}
	.st1{fill:#1E1D1E;}
</style>
<path class="st0" d="M409.74,321.41c0.41,0.36,0.51,0.64,0.01,1.27c-1.02,1.29-1.69,2.86-2.71,4.14c-0.86,1.07-1.76,2.11-2.6,3.21
	c-1.74,2.3-3.73,4.42-5.05,7.03c-0.11,0.21-0.3,0.4-0.49,0.56c-1.68,1.35-2.89,3.17-4.18,4.82c-2.3,2.94-4.84,5.64-7.42,8.31
	c-2.97,3.07-6.12,5.94-9.06,9.02c-0.71,0.75-1.36,1.65-2.24,2.13c-1.76,0.96-2.74,2.72-4.26,3.86c-2.26,1.69-4.22,3.81-6.55,5.28
	c-1.72,1.08-2.85,2.73-4.54,3.64c-1.89,1.02-3.45,2.46-5.3,3.53c-1.26,0.73-2.51,1.59-3.69,2.5c-1.28,0.98-2.7,1.73-3.93,2.82
	c-0.5,0.44-1.52,0.68-2.33,0.88c-1.54,0.38-2.05,1.98-3.31,2.68c-0.4,0.22-0.77,0.7-1.19,0.65c-1.39-0.16-2.13,0.74-2.95,1.57
	c-0.29,0.29-0.57,0.52-1.06,0.56c-1.31,0.12-2.56,0.42-3.29,1.71c-0.37,0.66-1.17,0.39-1.76,0.7c-3.12,1.61-6.49,2.75-9.52,4.5
	c-2.1,1.21-4.35,1.58-6.52,2.37c-0.65,0.24-1.29,0.89-2.09,1.14c-1.7,0.53-3.29,1.34-5,1.87c-0.77,0.24-1.58,0.49-2.35,0.84
	c-1.29,0.6-2.72,0.9-4.14,1.19c-1.12,0.23-2.29,0.59-3.24,1.21c-0.57,0.37-1.25,0.44-1.71,0.5c-1.59,0.22-2.99,1-4.53,1.28
	c-0.84,0.15-1.73-0.1-2.48,0.54c-0.72,0.61-1.63,0.52-2.5,0.51c-1.36-0.01-2.61,0.46-3.85,0.94c-0.72,0.27-1.5,0.21-2.27,0.48
	c-0.91,0.32-2,0.55-2.98,0.57c-2.29,0.03-4.46,0.66-6.64,1.17c-2.1,0.49-4.23,0.67-6.36,0.92c-2.81,0.33-5.63,0.61-8.45,0.92
	c-0.34,0.04-0.67,0.1-1.01,0.1c-8.38,0.01-16.77,0.2-25.15-0.08c-3.21-0.11-6.48-0.08-9.64-0.54c-2.13-0.31-4.41,0.04-6.4-0.93
	c-1.31-0.64-2.68-0.14-3.9-0.53c-2.18-0.7-4.5-0.49-6.69-1.32c-1.04-0.39-2.36-0.78-3.6-0.64c-0.9,0.11-1.67-0.37-2.32-0.65
	c-0.92-0.4-1.82-0.17-2.65-0.42c-1.98-0.6-4.29-0.19-5.95-1.84c-0.26-0.26-0.65-0.18-0.98-0.16c-1.13,0.04-2.11-0.45-3.1-0.87
	c-0.04-0.02-0.08-0.08-0.1-0.07c-1.75,0.37-3.07-1.04-4.73-1.14c-1.13-0.07-1.98-0.99-3.17-1.14c-1.87-0.23-3.54-1.21-5.23-1.97
	c-1.6-0.72-3.34-0.89-4.94-1.8c-1.64-0.93-3.64-1.39-5.39-2.24c-2.05-1-4.16-1.87-6.22-2.83c-1.58-0.73-3.12-1.61-4.74-2.3
	c-1.1-0.47-2.2-1.24-3.28-1.68c-1.79-0.73-3.12-2.11-4.86-2.87c-1.31-0.57-2.41-1.61-3.72-2.18c-3.06-1.33-5.37-3.87-8.51-5.13
	c-1.01-0.4-2.04-1.27-2.9-2.21c-1.28-1.4-2.99-2.31-4.64-3.24c-0.2-0.11-0.29-0.29-0.45-0.41c-2.15-1.78-4.33-3.46-6.75-4.91
	c-2.05-1.23-3.46-3.49-5.38-5.01c-3.14-2.47-5.75-5.46-8.6-8.21c-0.56-0.54-1.43-0.64-1.75-0.63c-1.52,0.04-2.45-1.34-3.94-1.32
	c-0.95,0.01-2.01-0.61-2.74-1.09c-1.41-0.92-3.08-1.09-4.44-2.07c-1-0.73-2.17-1.25-3.53-1.46c-1.1-0.17-2.05-1.18-3.12-1.69
	c-1.47-0.7-2.97-1.4-4.56-1.77c-0.68-0.16-0.96-0.73-1.48-1.05c-2.2-1.35-4.64-2.28-6.76-3.81c-0.85-0.61-1.96-0.87-2.96-1.27
	c-0.11-0.05-0.29,0-0.37-0.07c-2-1.98-4.69-2.93-6.89-4.65c-0.94-0.74-1.68-2.15-3.25-1.95c-0.04,0-0.1-0.01-0.12-0.04
	c-1.05-1.56-2.77-2.27-4.27-3.2c-1.62-1-2.85-2.42-4.35-3.55c-1.3-0.97-2.5-2.23-3.67-3.44c-1.32-1.37-2.85-2.53-4.18-3.87
	c-1.7-1.7-3.48-3.38-4.68-5.53c-0.23-0.42-0.64-0.78-1.03-1.08c-1.74-1.32-3.08-3.09-4.16-4.84c-1.63-2.61-3.67-4.93-5.11-7.71
	c-1.14-2.2-1.94-4.69-3.72-6.55c-0.25-0.26-0.17-0.56-0.17-0.83c0-0.57-0.03-1.09-0.56-1.45c-0.42-0.29-0.53-0.72-0.48-1.21
	c0.06-0.54-0.17-0.91-0.52-1.33c-0.77-0.93-0.97-2.17-1.46-3.25c-0.7-1.56-1.18-3.28-1.49-4.94c-0.34-1.84-0.79-3.69-1.26-5.47
	c-0.37-1.39,0.1-2.92-0.8-4.18c-0.07-0.09-0.06-0.24-0.07-0.37c-0.64-5.85-0.76-11.73-0.39-17.58c0.1-1.68,0.05-3.46,0.47-5.08
	c0.54-2.08,0.68-4.23,1.31-6.31c0.31-1.03,0.55-2.22,0.63-3.36c0.12-1.69,0.67-3.3,1.23-4.84c0.32-0.87,0.34-1.78,0.72-2.66
	c0.81-1.88,1.36-3.9,2.03-5.85c0.88-2.56,1.88-5.07,2.75-7.63c0.76-2.23,2.11-4.26,3.13-6.41c0.81-1.69,1.87-3.24,2.71-4.87
	c0.61-1.2,1.16-2.52,1.72-3.8c0.03-0.07-0.02-0.2,0.03-0.25c2.01-2.11,2.42-5.14,4.2-7.35c1.44-1.8,2.44-3.84,3.71-5.73
	c1.28-1.91,2.76-3.7,3.93-5.64c0.92-1.52,2.24-2.73,3-4.34c0.13-0.28,0.41-0.52,0.68-0.71c0.69-0.49,0.82-1.15,0.84-1.96
	c0.04-1.5,0.56-2.92,0.87-4.38c0.2-0.92,0.53-1.82,0.62-2.76c0.07-0.7,0.23-1.34,0.44-2.01c0.62-1.99,1.24-3.98,1.67-6.04
	c0.33-1.6,0.87-3.21,1.61-4.66c0.5-0.98,0.18-2.08,0.85-2.99c0.61-0.82,0.36-2.09,1.29-2.79c0.2-0.15,0.28-0.33,0.26-0.54
	c-0.12-1.24,0.56-2.24,0.91-3.34c0.42-1.32,1.15-2.46,1.64-3.72c0.67-1.7,1.14-3.47,2.01-5.11c1.02-1.92,1.8-3.94,2.89-5.86
	c1.32-2.33,2.73-4.68,3.67-7.19c0.84-2.24,1.99-4.17,3.48-5.98c0.55-0.67,0.69-1.6,0.95-2.44c0.37-1.23,1.5-1.96,2.12-3.06
	c0.47-0.83,0.86-1.74,1.41-2.5c1.25-1.72,2.29-3.57,3.61-5.25c1.61-2.04,3.12-4.17,4.49-6.4c0.47-0.77,1.1-1.53,1.72-2.17
	c1.2-1.25,2.18-2.66,3.25-3.99c2.34-2.9,4.94-5.56,7.35-8.37c4.67-5.45,9.91-10.32,15.06-15.28c1.94-1.87,4.12-3.58,6.25-5.25
	c1.69-1.33,3.04-3.04,4.98-4.1c2.64-1.43,4.82-3.56,7.46-5.03c0.84-0.47,1.61-1.21,2.38-1.86c1.98-1.67,4.28-2.8,6.46-4.14
	c1.56-0.96,3.08-1.99,4.67-2.91c1-0.58,2.09-1.02,3.02-1.71c2.1-1.56,4.62-2.34,6.79-3.79c1.11-0.74,2.5-1.16,3.76-1.74
	c1.56-0.71,3.02-1.63,4.64-2.21c1.52-0.55,3.17-1.06,4.38-2.05c1.31-1.07,3.02-0.8,4.29-1.85c0.52-0.43,1.55-0.08,2.31-0.6
	c2.15-1.49,4.88-1.51,7.13-2.64c2.03-1.02,4.36-1.02,6.29-2.33c0.64-0.43,1.73-0.5,2.58-0.59c1.81-0.18,3.39-1.3,5.05-1.41
	c1.91-0.13,3.46-1.2,5.37-1.31c1.75-0.1,3.61-0.39,5.26-1.25c0.11-0.06,0.23-0.16,0.33-0.15c1.36,0.21,2.6-0.48,3.91-0.52
	c1.62-0.04,3.1-0.67,4.64-0.9c1.44-0.21,2.86-0.61,4.35-0.68c2.67-0.12,5.34-0.38,7.99-0.62c1.64-0.15,3.31-0.18,4.94-0.4
	c8.44-1.09,16.91-0.41,25.36-0.34c2.63,0.02,5.36,0.07,7.99,0.45c2.42,0.35,4.83,0.78,7.28,1.03c2.11,0.21,4.23,0.63,6.32,1.03
	c1.71,0.32,3.47,0.46,5.14,0.96c1.68,0.5,3.42,0.68,5.1,1.06c2.08,0.46,4.12,1.08,6.21,1.51c2.04,0.42,4.16,0.81,6.04,1.6
	c1.74,0.74,3.58,1.12,5.33,1.77c1.74,0.65,3.53,1.3,5.37,1.71c1.56,0.34,2.9,1.31,4.49,1.64c2.24,0.47,4.13,1.88,6.35,2.48
	c1.51,0.41,2.86,1.38,4.31,2.02c2.43,1.08,4.79,2.29,7.16,3.48c2.46,1.23,4.92,2.43,7.3,3.83c0.97,0.58,1.98,1.14,3.17,1.41
	c0.92,0.21,1.54,1.21,2.43,1.74c2.46,1.48,4.71,3.37,7.3,4.54c1.41,0.64,2.19,2.02,3.44,2.41c2.17,0.67,3.1,2.97,5.28,3.53
	c0.86,0.22,1.55,1.08,2.21,1.66c1.83,1.6,3.85,2.9,5.8,4.31c1.66,1.2,3.01,2.84,4.5,4.29c0.4,0.4,0.75,0.77,1.36,0.99
	c0.91,0.33,1.56,1.06,2.15,1.93c0.83,1.23,2.31,1.88,3.38,2.98c3.23,3.35,6.77,6.41,9.83,9.9c2.97,3.39,5.99,6.74,8.95,10.14
	c0.72,0.82,1.37,1.94,1.91,2.98c0.18,0.35,0.41,0.62,0.64,0.88c1.97,2.15,3.9,4.3,5.13,7.03c0.41,0.92,1.31,1.72,1.96,2.6
	c0.8,1.1,1.85,2.02,2.08,3.49c0.09,0.62,0.7,1.17,1.07,1.55c1.53,1.57,1.97,3.79,3.51,5.34c0.69,0.7,0.89,1.87,1.52,2.66
	c1.6,2.04,2.25,4.59,3.78,6.68c0.61,0.84,1.49,1.7,1.33,2.99c-0.09,0.69,0.72,0.92,1.03,1.46c1.15,2.02,1.68,4.31,2.84,6.35
	c0.82,1.46,1.76,3.05,2.07,4.66c0.47,2.49,1.62,4.59,2.66,6.8c0.28,0.59,0.32,1.34,0.45,1.98c0.27,1.33,1.06,2.42,1.31,3.8
	c0.27,1.42,0.76,3,1.44,4.4c0.05,0.1,0.27,0.17,0.27,0.25c-0.03,1.55,0.73,2.88,1.15,4.31c0.48,1.65,0.75,3.35,1.42,4.96
	c0.33,0.8,0.56,1.78,0.56,2.59c0,1.59,1.31,2.02,2.13,2.26c1.04,0.31,1.72,1.03,2.6,1.47c1.45,0.73,2.73,1.74,4.29,2.34
	c0.78,0.3,1.65,0.88,2.28,1.56c1.01,1.08,2.06,2.02,3.52,2.55c1.4,0.52,2.22,1.91,3.36,2.8c2.43,1.88,4.62,4,6.69,6.24
	c2.16,2.34,4.37,4.67,6.2,7.25c2.05,2.89,3.91,5.99,5.11,9.3c0.84,2.3,1.72,4.64,2.36,7.06c1.04,3.92,1.51,7.87,1.79,11.86
	c0.17,2.31-0.56,4.61-0.43,6.95c0.01,0.13,0.01,0.35-0.04,0.36c-1.15,0.34-0.34,1.18-0.48,1.77c-0.38,1.58-0.41,3.2-0.87,4.78
	c-0.25,0.87-0.46,1.81-0.61,2.73c-0.11,0.65-0.07,1.28-0.9,1.45c-0.2,0.04-0.42,0.25-0.34,0.47c0.75,1.83-0.76,3.27-0.84,4.94
	c-0.02,0.39-0.31,0.48-0.57,0.59c-0.24,0.1-0.47,0.17-0.44,0.5c0.2,2.01-1.16,3.43-1.93,5.08c-0.73,1.55-1.32,3.18-2.22,4.61
	c-0.48,0.76-0.71,1.86-1.8,2.18c-0.14,0.04-0.34,0.22-0.35,0.34c-0.04,2.31-1.86,3.75-2.68,5.66c-0.58,1.34-1.24,2.54-2.19,3.61
	c-0.53,0.6-1.3,0.88-1.69,1.72c-0.71,1.51-1.85,2.76-2.64,4.26c-0.54,1.03-1.47,1.9-2.39,2.73c-1.11,0.99-2.1,2.16-3,3.35
	c-0.26,0.35-0.51,0.93-0.84,0.94c-0.71,0.03-0.88,0.54-1.3,0.88c-1.58,1.29-2.25,3.34-3.96,4.51c-1.05,0.71-1.3,2.14-2.36,2.89
	c-3.13,2.19-5.38,5.35-8.38,7.65c-0.98,0.75-1.86,1.65-2.89,2.37c-0.88,0.62-1.66,1.55-2.41,2.36c-1.11,1.21-2.16,2.28-3.67,3.06
	c-0.84,0.43-2.07,0.57-2.43,1.06c-0.7,0.96-1.63,1.65-2.37,2.54c-1.47,1.77-3.42,2.89-5.41,3.96c-0.76,0.4-0.97,1.28-1.29,1.98
	C412.09,319.33,411.01,320.41,409.74,321.41z M213.31,78.04c4.35,0,8.7,0.01,13.05,0.01c0.22,0.73,0.55,1.44,0.63,2.19
	c0.24,2.05,0.17,3.96-1.45,5.67c-3.82,4.04-7.23,8.45-10.75,12.75c-0.34,0.42-0.72,0.82-0.72,1.44c-0.06,5.8,0.14,11.58,2.1,17.11
	c1,2.82,2.52,5.32,5.95,5.8c3.7,0.51,7.42,0.84,11.16,1.02c1.65,0.08,3.32-0.18,4.94,0.31c0.22,0.71,0.06,1.44,0.14,2.15
	c0.11,1.11-0.21,1.55-1.46,1.54c-13.34-0.05-26.69-0.02-40.03-0.02c-0.72,0-1.44,0.01-2.17,0.01c-0.75,0-1.06-0.37-1-1.12
	c0.31-4.06,0.57-8.12,0.91-12.18c0.41-4.93,0.88-9.86,1.29-14.79c0.04-0.5,0.33-1.1-0.24-1.54c0.52-1.44,1.73-2.37,2.65-3.5
	c1.51-1.86,3.11-3.65,4.7-5.51c-0.64-0.31-1.19-0.13-1.71-0.5c-1.66-1.18-2.42-2.8-2.47-4.76c-0.03-0.98-0.19-1.22-1.16-0.69
	c-3.79,2.1-7.6,4.15-11.43,6.16c-2.63,1.38-5.22,2.86-7.99,3.96c-1.28,0.5-2.17,1.3-2.88,2.62c-1.1,2.04-3.26,3.3-5.91,1.93
	c-0.37-0.19-0.74-0.21-1.1-0.05c-4.42,1.95-8.83,3.92-13.25,5.85c-4.14,1.81-8.27,3.57-12.9,3.88c-1.88,0.13-3.79,0.36-5.68,0.61
	c-2.43,0.31-4.86,0.91-7.32,0.76c-1.78-0.11-3.27,0.44-4.71,1.34c-0.43,0.27-0.89,0.49-1.32,0.75c-2.34,1.41-5.05,2.27-7.03,4.16
	c-3.4,3.24-6.59,6.71-9.82,10.12c-0.5,0.53-1.36,0.89-1.27,1.85c-0.07-0.02-0.13-0.03-0.2-0.05c0.01,0.06,0.01,0.12,0.02,0.17
	c0.06-0.05,0.11-0.1,0.17-0.14c3.37-0.4,6.74-0.64,10.14-0.53c2.8,0.1,5.61,0.13,8.41,0.27c4.06,0.2,8.12,0.47,12.18,0.71
	c-1.01,0.07-2.03,0.2-3.04,0.2c-8.93,0.02-17.86,0.12-26.79-0.05c-2.19-0.04-2.79,1.37-4.17,2.69c0.76,0,1.13,0,1.51,0
	c15.52,0,31.05,0,46.57-0.01c0.47,0,0.94,0.01,1.4,0.01c0.41,0,0.8,0.02,0.73,0.59c-0.05,0.41,0.01,0.9-0.61,0.93
	c-0.34,0.01-0.68,0.01-1.02,0.01c-12.93,0-25.86,0.02-38.79-0.03c-1.17,0-1.45,0.29-1.45,1.45c0.04,14.76,0.02,29.52,0.06,44.27
	c0,1.15-0.31,1.41-1.41,1.38c-2.8-0.08-5.61-0.03-8.42-0.03c-1.26-2.79-1.23-5.69-0.64-8.59c0.9-4.37,1.77-8.74,1.59-13.24
	c-0.16-4.16-0.34-8.32-0.44-12.48c-0.1-4.56-0.23-9.12,0.53-14.03c-1.65,1.8-3.05,3.33-4.45,4.85
	c-5.59,6.06-10.89,12.36-16.08,18.77c-0.23,0.28-0.37,0.53-0.38,0.9c-0.22,4.58-0.44,9.16-0.69,13.73
	c-0.18,3.31-0.05,6.62-0.07,9.94c-0.4,0.21-0.83,0.15-1.25,0.15c-4.21,0-8.43,0.12-12.63-0.05c-2.02-0.08-3.43,0.36-4.18,2.29
	c-0.03,0.07-0.01,0.16-0.02,0.24c0.21,0.2,0.47,0.15,0.72,0.15c4.72-0.01,9.45-0.06,14.17,0c1.05,0.02,2.21-0.4,3.19,0.38
	c0.08,1.18,0.14,2.36,0.25,3.54c0.22,2.47,0.15,5.04,2.41,6.79c0.93,0.72,1.84,1.46,2.76,2.2c0.02,0.47,0.07,0.93,0.06,1.4
	c-0.1,5.53-0.26,11.05-0.3,16.58c-0.03,4.93,0.05,9.87,0.12,14.8c0.01,0.82-0.12,1.2-1.08,1.2c-7.32-0.04-14.64-0.04-21.96-0.01
	c-0.81,0-1.1-0.19-1.11-1.05c-0.03-3.61-0.21-7.23-0.2-10.84c0.04-10.04-0.19-20.08,0.13-30.12c0.04-1.13,0.1-2.26-0.23-3.73
	c-0.89,1.99-2.49,3.23-2.49,5.35c0.04,13.14-0.16,26.29,0.22,39.43c0.02,0.7-0.1,0.97-0.88,0.95c-2.38-0.05-4.77,0.03-7.15-0.04
	c-1.1-0.03-1.67,0.01-1.43,1.43c0.16,0.92,0.33,1.21,1.27,1.18c2.42-0.07,4.85,0,7.28-0.04c0.73-0.01,0.97,0.22,0.95,0.94
	c-0.05,1.91,0.1,3.81,0.15,5.72c0.27,8.67,0.43,17.34,0.67,26.01c0.12,4.12,0.34,8.24,0.49,12.35c0.01,0.4,0.29,1.07-0.42,1.14
	c-0.82,0.08-0.37,0.54-0.36,0.88c0.03,1.13,0.92,1.9,1.18,3c0.56,2.41,1.6,4.68,2.53,6.76c0-2.21,0.05-4.55-0.03-6.89
	c-0.03-0.93,0.26-1.14,1.13-1.14c7.57,0.03,15.15,0.03,22.72,0.02c0.74,0,1.11,0.09,1.19,1c0.29,3.25,0.71,6.49,1.1,9.74
	c0.59,4.94,1.11,9.88,1.8,14.8c0.54,3.84,0.86,7.72,1.76,11.52c0.58,2.43,0.75,4.95,1.22,7.41c0.18,0.95-0.03,1.2-0.97,1.18
	c-2.68-0.06-5.36-0.05-8.04-0.05c-0.42,0-0.92-0.17-1.29,0.27c0.23,0.31,0.47,0.56,0.62,0.84c0.59,1.15,1.46,1.55,2.78,1.48
	c2.21-0.12,4.42-0.01,6.64-0.04c0.65-0.01,1,0.14,1.14,0.85c0.55,2.92,1.33,5.81,1.69,8.75c0.25,1.98,1.4,2.57,3,2.95
	c0.23-0.41,0.04-0.76-0.04-1.13c-0.7-3.37-1.4-6.73-2.09-10.1c-0.16-0.78-0.21-1.44,0.96-1.34c0.93,0.08,1.87,0.03,2.81,0.03
	c14.17,0,28.34,0,42.51-0.02c0.79,0,1.32,0.04,1.49,1.07c1.41,8.3,3.44,16.45,5.69,24.55c0.54,1.94,0.96,2.21,3.09,1.91
	c-2.42-8.58-4.54-17.23-6.17-25.99c-0.28-1.52-0.3-1.52,1.28-1.52c8.04,0,16.09,0,24.13,0c5.15,0,10.3,0.01,15.45-0.03
	c0.99-0.01,1.45,0.2,1.47,1.32c0.05,1.86,0.34,3.71,0.46,5.58c0.51,8.13,1.53,16.22,2.32,24.33c0.03,0.28-0.06,0.69,0.33,0.72
	c0.67,0.06,1.41,0.19,2.02-0.02c0.59-0.2,0.05-0.9,0.16-1.37c0.05-0.2-0.03-0.42-0.05-0.63c-0.58-5.74-1.19-11.49-1.73-17.23
	c-0.34-3.59-0.55-7.19-0.9-10.78c-0.18-1.89-0.25-1.88,1.63-1.89c14.47-0.01,28.94,0,43.4-0.04c1.13,0,1.22,0.48,1.21,1.37
	c-0.02,8.68-0.02,17.36-0.02,26.04c0,1.11,0.04,2.21-0.01,3.32c-0.03,0.75,0.28,0.89,0.99,0.91c1.29,0.04,1.57-0.5,1.56-1.72
	c-0.05-9.28-0.03-18.55-0.04-27.83c0-2.06-0.01-2.07,2.12-2.07c9.7,0,19.4,0,29.11,0c1.66,0,1.66,0,1.66,1.62
	c0,7.96,0,15.91-0.01,23.87c0,0.42-0.07,0.84-0.1,1.26c-0.04,0.7-0.49,0.94-1.1,0.95c-1.28,0.01-2.52,0.28-3.78,0.43
	c-5.48,0.65-10.97,1.17-16.44,1.86c-1.1,0.14-2.28,0.12-3.33,0.63c0.52,0.15,1.03,0.18,1.53,0.14c3.25-0.23,6.5-0.48,9.74-0.96
	c3.09-0.46,6.21-0.71,9.29-1.2c1.17-0.18,2.33-0.43,3.51-0.49c0.32-0.02,0.6-0.04,0.66-0.42c0.21-0.01,0.42-0.01,0.63-0.03
	c1.92-0.2,1.92-0.2,1.92-2.08c0-8.08,0.02-16.17-0.03-24.25c-0.01-1.1,0.32-1.33,1.36-1.32c5.32,0.05,10.64,0.03,15.96,0.02
	c8.43,0,16.85,0.01,25.28-0.03c0.96,0,1.3,0.23,1.13,1.22c-0.28,1.59-0.45,3.2-0.69,4.79c-0.52,3.52-1.06,7.03-1.6,10.64
	c0.77-0.24,1.41-0.48,2.07-0.63c0.49-0.11,0.67-0.34,0.74-0.84c0.65-4.45,1.4-8.89,1.97-13.36c0.25-1.98,0.13-1.79,2.05-1.79
	c10.68-0.01,21.36-0.1,32.04,0.07c2.84,0.04,4.96-1.23,7.55-2.56c-0.62-0.03-0.9-0.06-1.19-0.06c-12,0-24,0-36,0
	c-0.89,0-1.79-0.03-2.68,0c-0.81,0.03-1.2-0.17-0.98-1.09c0.19-0.82,0.24-1.68,0.34-2.52c1.15-9.2,2.33-18.4,3.39-27.61
	c0.14-1.19,0.51-1.43,1.59-1.42c4,0.05,8-0.02,12,0.05c1.12,0.02,1.36-0.37,1.34-1.39c-0.05-3.45,0.02-6.89-0.04-10.34
	c-0.02-1.09,0.34-1.37,1.38-1.33c2.21,0.08,4.43,0.09,6.64,0c1.1-0.05,1.48,0.26,1.47,1.39c-0.06,3.53-0.01,7.06-0.01,10.59
	c0,0.55-0.13,1.1,0.78,1.08c5.18-0.13,10.37,0.1,15.55-0.1c0.46-0.02,1.41-0.2,1.42,0.44c0.02,0.8,0.06,1.67-0.08,2.45
	c-0.79,4.43-0.76,8.93-1.31,13.38c-0.38,3.07-0.57,6.17-0.85,9.26c-0.17,1.96-0.34,3.92-0.52,5.95c2.49-0.75,2.75-1.07,2.89-3.35
	c0.04-0.59,0.13-1.18,0.15-1.78c0.06-2.39,0.42-4.76,0.47-7.17c0.03-1.87,0.57-3.8,0.67-5.73c0.11-2.02,0.22-4.05,0.39-6.04
	c0.17-1.99,0.51-4.01,0.58-6.03c0.03-1.02,0.29-1.36,1.36-1.35c4.17,0.06,8.34,0.03,12.51,0.03c0.54,0,1.03,0.01,1.53-0.41
	c4.37-3.68,8.54-7.58,12.19-12c0.31-0.38,0.6-0.63,1.16-0.61c1.62,0.05,3.23,0.03,4.85,0c0.75-0.02,1.02,0.16,0.95,1.02
	c-0.33,3.72-0.55,7.46-0.84,11.18c-0.23,2.95-0.5,5.89-0.78,9.2c1.17-1.11,2.72-1.31,2.85-3c0.41-5.51,0.83-11.01,1.26-16.52
	c0.15-1.88,0.16-1.87,2.01-1.87c4.43,0.01,8.85,0,13.28-0.01c0.75,0,1.72-1.3,1.54-2.19c-0.17-0.87-0.92-0.35-1.37-0.36
	c-4.64-0.04-9.28-0.03-13.92-0.01c-0.83,0-1.29-0.02-1.17-1.16c0.26-2.43,0.48-4.87,0.6-7.3c0.15-2.98,0.12-5.92,1.1-8.82
	c2.45-7.2,2.74-14.56,1.27-21.99c-0.38-1.93-0.6-3.84-0.47-5.8c0.06-0.95,0.38-1.15,1.3-1.15c7.02,0.04,14.04,0.02,21.06,0.02
	c0.26,0,0.52,0.04,0.76-0.01c1.23-0.28,0.51-1.32,0.74-1.99c0.24-0.71-0.41-0.56-0.79-0.57c-0.77-0.02-1.53-0.01-2.3-0.01
	c-6.43,0-12.85-0.03-19.28,0.03c-1.08,0.01-1.4-0.3-1.32-1.36c0.08-1.18,0.15-2.37,0.19-3.56c0.21-6.37,0.4-12.75,0.48-19.12
	c0.09-7.28,0.06-14.55,0.04-21.83c0-0.83,0.24-1.07,1.08-1.06c5.02,0.04,10.04,0.02,15.06,0.02c1.15,0,2.3,0.01,3.45-0.01
	c0.27,0,0.61,0.11,0.75-0.29c0.33-0.95-0.64-2.31-1.64-2.31c-5.83,0-11.66-0.01-17.49,0.02c-0.78,0-1.23-0.04-1.22-1.05
	c0.09-6.17-0.09-12.33-0.31-18.5c-0.13-3.57-0.22-7.14-0.38-10.7c-0.23-5.26-0.53-10.52-0.73-15.78c-0.09-2.53-0.01-2.51,2.47-2.56
	c0.61-0.01,1.53,0.32,1.78-0.23c0.31-0.69-0.49-1.36-0.76-2.05c-0.15-0.4-0.54-0.35-0.87-0.36c-0.68,0-1.37-0.04-2.04,0.02
	c-0.78,0.07-1.03-0.23-1.06-1c-0.09-1.91-0.23-3.81-0.41-5.71c-0.21-2.21-1.74-3.74-2.85-5.5c0.12,3.74,0.35,7.42,0.64,11.1
	c0.07,0.88-0.1,1.15-1.05,1.14c-7.83-0.05-15.66-0.09-23.49,0c-2.26,0.02-4.37-0.11-6.23-1.54c-0.29-0.23-0.72-0.3-0.98-0.55
	c-0.6-0.58-1.59-0.74-1.68-1.88c-0.37-4.7-0.86-9.39-1.22-14.09c-0.52-6.74-1.46-13.42-2.27-20.13c-0.42-3.5-0.88-6.99-1.39-10.47
	c-0.16-1.11,0.23-1.39,1.28-1.35c1.87,0.07,3.75,0.02,5.63,0.02c-1.24-1.44-2.19-3.19-4.43-2.67c-0.45,0.1-0.93,0.03-1.4,0.03
	c-1.85,0.01-1.97-0.03-1.99-1.86c-0.03-2.27-0.72-4.13-2.75-5.34c-0.21-0.13-0.36-0.41-0.65-0.29c-0.4,0.17-0.19,0.48-0.14,0.76
	c0.29,1.8,0.57,3.6,0.87,5.4c0.17,1.02-0.14,1.39-1.24,1.36c-3.62-0.07-7.23-0.03-10.85-0.03c-6.17,0-12.34-0.01-18.51,0.01
	c-0.39,0-0.93-0.31-1.13,0.42c-0.44,1.56,0,2.22,1.57,2.22c9.74,0,19.49,0.02,29.23-0.03c1.22-0.01,1.69,0.31,1.85,1.54
	c0.5,3.95,1.18,7.89,1.66,11.84c0.65,5.4,1.18,10.81,1.78,16.21c0.56,5.06,0.94,10.14,1.3,15.22c0.06,0.78,0,1.22-1.02,1.22
	c-12.21-0.04-24.43-0.04-36.64-0.02c-0.9,0-1.25-0.27-1.14-1.16c0.05-0.38-0.05-0.77,0.16-1.12c1.35-0.16,2.7-0.25,4.06-0.26
	c2.5-0.02,5.07,0.08,7.43-0.78c3.95-1.45,7.65-3.45,10.21-6.89c2.31-3.1,2.45-5.16-0.64-7.88c-1.81-1.59-3.68-3.14-5.6-4.63
	c-3.21-2.51-6.44-5.03-9.21-8.03c-2.99-3.23-5.7-6.39-5.33-11.54c0.63-8.63,0.33-17.32-1.17-25.88c-0.92-5.22-2.42-10.08-7.23-13.43
	c-4.32-3.01-8.38-6.35-13.2-8.58c-5.06-2.35-10.32-3.72-15.92-3.7c-2.34,0.01-4.66,0.21-6.99,0.35c-4.27,0.25-8.55,0.24-12.77,1.05
	c-0.27-0.99-0.29-2.02-0.15-3c0.2-1.39-0.38-1.82-1.64-1.98c-0.94-0.12-1.16,0.13-1.15,1.03c0.03,1.68-0.07,3.36-0.11,5.04
	c-0.94,0.88-2.17,1.27-3.22,1.97c-0.33-0.57-0.89-0.42-1.37-0.42c-2.3-0.01-4.59,0-6.89,0c-6.51,0-13.01-0.02-19.52,0.02
	c-1.2,0.01-1.72-0.2-1.64-1.59c0.15-2.54,0.01-5.1,0.09-7.65c0.03-1.02-0.42-1.13-1.21-1.03c-0.66,0.08-1.59-0.38-1.53,0.99
	c0.09,2.04,0.02,4.08,0.02,6.12c0,3.14,0,3.13-3.19,3.15c-10.46,0.06-20.92-0.13-31.38,0.1c-0.82,0.02-1.24-0.11-1.19-1.16
	c0.07-1.5,0.53-2.93,0.55-4.42c0-0.31,0.26-0.8-0.42-0.85c-1.51-0.11-2.39,0.6-2.54,2.11c-0.09,0.89-0.28,1.79-0.19,2.66
	c0.14,1.41-0.62,1.65-1.73,1.64c-5.74,0-11.48,0.02-17.22-0.01c-0.99-0.01-1.95,0.03-2.88,0.38c-1.82,0.7-3.74,1.17-5.72,2.25
	c0.56,0.06,0.81,0.1,1.06,0.12c5.9,0.3,11.81-0.11,17.71,0.09c2.29,0.08,4.58,0.06,6.87,0c1-0.03,1.24,0.35,1.13,1.28
	c-0.39,3.33-0.7,6.66-1.08,9.99c-0.1,0.84-0.29,1.67-0.05,2.52c-2.5,5.11-5,10.21-7.59,15.52c0.57-0.11,0.89-0.1,1.13-0.23
	c3.05-1.7,6.23-3.13,9.32-4.72c4.4-2.27,8.78-4.57,13.27-6.66c2.11-0.99,4.42-1.18,6.69-1.08c2.54,0.12,2.74,0.07,2.62-2.5
	c-0.02-0.53-0.18-1.01-0.43-1.44c-2-3.4-4.75-5.87-8.71-6.66c-2.25-0.45-4.56-0.6-6.85-0.27c-2.14,0.31-4.59-0.07-5.97,2.28
	c-0.1-0.22-0.4-0.32-0.36-0.63c0.3-2.26,0.62-4.51,0.89-6.78c0.08-0.63,0.44-0.75,0.97-0.73c0.89,0.04,1.78,0.12,2.67,0.12
	c10.47-0.01,20.93-0.03,31.4-0.08c0.99-0.01,1.24,0.28,1.23,1.26c-0.03,10.51,0,21.02,0.01,31.53c0,0.46,0.11,0.95-0.4,1.25
	c-0.85-0.11-1.6-0.47-2.39-0.78c-1.93-0.76-3.45-2.11-5.08-3.31c-0.69-0.51-1.28-0.7-2.13-0.2c-2.12,1.26-4.32,2.4-6.5,3.55
	c-0.55,0.29-0.49,0.54-0.01,0.76c1.87,0.85,2.76,2.52,3.64,4.21c-2.82,0.02-5.65,0.04-8.47,0.08c-0.44,0.01-0.73-0.14-0.88-0.55
	c0.28-0.87,1.23-1.23,1.61-2.08c-0.97,0.08-1.62,0.71-2.38,1.12c-2.88,1.57-5.77,3.13-8.66,4.67c-0.44,0.23-0.82,0.53-0.44,0.95
	c1.09,1.2,1.46,2.62,1.4,4.46C209.65,81.87,211.48,79.96,213.31,78.04z M194.17,374.22c-0.23-0.09-0.47-0.24-0.71-0.26
	c-5.06-0.38-10.15-0.45-15.18-1.26c-0.84-0.14-1.1,0.18-1.11,1.04c-0.01,0.71,0.2,1.35,0.29,2.02c0.59,4.05,2.05,7.77,4.24,11.19
	c3.15,4.93,7.13,9.13,11.75,12.7c1.6,1.24,2.96,2.85,4.99,3.48c0.72,0.18,1.44,0.38,2.17,0.54c0.24,0.05,0.6,0.25,0.62-0.27
	c2.32,0.16,4.65,0.27,6.97,0.5c5.32,0.51,10.66,0.67,15.99,0.9c4.7,0.2,9.4,0.29,14.11,0.43c0.22,0.53,0.15,1.09,0.1,1.62
	c-0.08,0.84,0.17,1.12,1.08,1.19c1.27,0.09,1.65-0.33,1.45-1.53c-0.08-0.45,0-0.92,0.01-1.38c3.02-0.06,6.03-0.19,9.05-0.18
	c5.4,0.02,10.78-0.45,16.16-0.81c2.53-0.17,5.06-0.42,7.59-0.63c0.02,0.42,0.03,0.84,0.06,1.26c0.01,0.24-0.05,0.5,0.27,0.63
	c0.9,0.38,2.23-0.47,2.26-1.47c0.01-0.25,0.04-0.5,0.06-0.75c0.73-0.23,1.49-0.29,2.26-0.36c1.86-0.18,3.72-0.36,5.56-0.68
	c3.21-0.55,6.43-1.11,9.62-1.78c3.75-0.79,7.56-1.37,11.19-2.66c1.29-0.46,2.7-0.66,3.84-1.52c1.03-0.11,1.95-0.55,2.84-1.05
	c1.62-0.59,3.27-1.11,4.86-1.77c5.71-2.39,11.31-5.01,16.79-7.88c0.45-0.24,0.71-0.55,0.91-0.99c1.5-3.2,3.05-6.38,4.51-9.6
	c3.24-7.13,6.45-14.27,9.65-21.42c0.25-0.55,0.92-1.25,0.51-1.69c-0.47-0.51-1.12,0.23-1.7,0.43c-4.42,1.6-8.82,3.25-13.27,4.78
	c-3.54,1.22-7.14,2.26-10.69,3.43c-1.9,0.63-3.9,0.94-5.69,1.89c-0.9,0.24-1.81,0.48-2.71,0.71c-0.85,0.42-1.8,0.36-2.69,0.59
	c-3.16,0.82-6.31,1.66-9.48,2.39c-3.42,0.79-6.84,1.56-10.29,2.21c-2.49,0.47-4.98,0.94-7.47,1.42c-2.86,0.55-5.79,0.68-8.6,1.52
	c-0.86,0-1.72,0.05-2.54,0.36c-4.39,0.17-8.69,1.05-13.04,1.48c-4.22,0.42-8.46,0.62-12.69,0.91c-2.41,0.16-4.82,0.28-7.24,0.43
	c-0.77,0.39-1.63-0.02-2.41,0.27c-0.88-0.33-1.75,0.05-2.63,0.05c-7.15,0-14.29,0.09-21.44,0.05c-3.95-0.02-7.9,0.06-11.85-0.25
	c-1.89-0.15-3.79-0.49-5.71-0.19C195.91,374.29,195.05,374.03,194.17,374.22z M84.02,130.74c-0.99,1.83-2.3,3.51-2.87,5.6
	c9-8.9,18.35-17.37,28.07-26.02c-1.29,0.02-1.88-0.43-1.87-1.31c0-0.85,0.84-1,1.42-1.25c0.65-0.27,1.36-0.43,2.05-0.61
	c0.97-0.24,2.12-0.13,2.88-0.83c0.71-0.65,1.38-0.7,2.2-0.45c0.37,0.11,0.75,0.04,1.13-0.05c1.82-0.41,3.66-0.72,5.45-1.21
	c0.88-0.25,1.88-0.89,1.82-1.86c-0.07-1.02-1.14-1.23-2.09-1.23c-0.21,0-0.43,0-0.64-0.01c-4.56-0.24-9.08,0.25-13.62,0.53
	c-0.59,0.04-1.47,0.25-1.58-0.62s0.81-0.8,1.37-1.01c0.08-0.03,0.17-0.03,0.25-0.04c2.57-0.27,5.14-0.56,7.71-0.79
	c0.65-0.06,0.91-0.25,0.88-0.91c-0.1-2.05,0.36-3.95,1.52-5.68c0.42-0.63,0.37-1.26-0.09-1.88c-0.3-0.41-0.6-0.83-0.81-1.29
	c-0.37-0.84-0.82-0.76-1.46-0.28c-1.39,1.04-2.8,2.08-4.24,3.05c-4.37,2.94-8.75,5.86-13.15,8.75c-2.25,1.48-3.72,3.27-3.3,6.18
	c0.16,1.13,0.05,2.29,0.01,3.44c-0.07,2.23-0.47,4.37-1.72,6.28c0.01-0.8-0.04-1.62,0.05-2.41c0.38-3.28,0.87-6.55,1.2-9.84
	c0.35-3.5,0.67-7.01,1.13-10.5c0.19-1.46,0.24-2.94,0.36-4.45c-2.5,1.63-3.08,4.02-3.34,6.6c-0.54,5.31-1.14,10.62-1.7,15.93
	c-0.33,3.12-0.74,6.23-0.81,9.37c-1.49,2.05-2.99,4.11-4.48,6.16c-5.09-0.04-10.18-0.07-15.27-0.11c-0.43,0-0.75,0.15-0.91,0.55
	c-0.25,0.62-0.91,1.28-0.65,1.84c0.27,0.59,1.15,0.23,1.76,0.24C75.11,130.71,79.57,130.51,84.02,130.74z M167.55,58.86
	c-0.39-0.2-0.46-0.48-0.38-0.93c1.06-6.22,2.08-12.44,3.11-18.66c0.08-0.49,0.38-1.14-0.01-1.45c-0.41-0.32-0.94,0.17-1.39,0.38
	c-0.6,0.28-1.39,0.22-1.53,1.23c-0.59,4.14-1.3,8.26-1.91,12.4c-0.39,2.63-1.12,5.2-1.32,7.86c-0.35,0.52-0.94,0.25-1.4,0.37
	c-5.52,1.4-11.14,2.03-16.84,1.68c-0.96-0.06-1.68,0.1-2.28,0.93c-0.7,0.95-1.52,1.82-2.32,2.69c-3.16,3.41-6.25,6.9-9.57,10.16
	c-0.5-0.1-1-0.12-1.51-0.12c-6.25,0.02-12.49,0.03-18.74,0.01c-1.37,0-3.18,1.22-3.68,2.65c2.62,0,5.21-0.01,7.8,0
	c4.46,0.02,8.91,0.06,13.37,0.1c-0.82,1.04-1.77,1.96-2.79,2.78c-0.8,0.64-0.72,1,0.02,1.65c3.93,3.42,8.05,6.64,11.73,10.34
	c0.54,0.54,1,0.58,1.67,0.2c1.46-0.83,2.97-1.56,4.45-2.35c6.29-3.35,12.68-6.52,19-9.82c5-2.61,10.05-5.14,15-7.85
	c0.51-0.28,0.76-0.56,0.94-1.07c2.47-7.09,4.94-14.19,6.7-21.5c0.66-2.74,0.92-5.53,0.31-8.34c-0.2-0.91-0.44-1.81-1.42-2.09
	c-0.88-0.25-1.51,0.39-2.08,0.97c-2.04,2.05-3.78,4.36-5.6,6.59c-2.15,2.63-4.17,5.39-6.92,7.44c-0.72,0.54-1.13,1.11-1.06,2.01
	C168.93,58.08,168.49,58.67,167.55,58.86z M42.48,218.33c-0.32,0.72-0.5,1.1-0.65,1.49c-3.52,9.24-5.93,18.75-7.02,28.59
	c-0.61,5.45-0.82,10.92-0.37,16.4c0.53,6.54,1.71,12.95,3.84,19.15c3.82,11.16,10.24,20.72,18.31,29.2
	c6.3,6.62,13.65,11.94,21.31,16.87c0.45,0.29,0.91,0.64,1.62,0.72C55.46,297.15,43.47,259.75,42.48,218.33z M431.82,277.7
	c0.38-0.29,0.69-0.45,0.9-0.69c2.66-3.02,5.39-5.98,7.88-9.14c7.46-9.49,13.72-19.59,16.6-31.5c1.72-7.09,1.99-14.18,0.14-21.27
	c-2.6-9.94-8.43-17.74-16.25-24.19c-0.29-0.24-0.58-0.65-0.98-0.43c-0.33,0.18-0.07,0.62-0.08,0.94c0,0.21,0.02,0.42,0.06,0.63
	c0.78,4.91,1.1,9.87,1.32,14.82c0.47,10.62,0.16,21.24-1.15,31.81c-1.25,10.12-3.07,20.13-5.84,29.96
	C433.6,271.63,432.72,274.59,431.82,277.7z M168.87,393.7c-0.06-0.22-0.08-0.35-0.14-0.46c-3.69-6.88-6.81-14.02-9.66-21.29
	c-0.73-1.87-1.27-2.18-3.41-1.9c0.11,0.37,0.2,0.74,0.34,1.09c2.61,6.58,5.21,13.17,8.49,19.47
	C165.45,392.46,166.69,393.54,168.87,393.7z M366.85,343.78c-0.98,0.95-2.57,0.59-2.76,2.2c-0.4,3.54-0.78,7.08-1.19,10.62
	c-0.3,2.61-0.64,5.23-0.96,7.84c-0.1,0.83-0.6,1.6-0.38,2.68c1.44-1.13,3.12-1.74,3.05-3.95c-0.04-1.38,0.31-2.77,0.48-4.16
	C365.7,354.04,366.41,349.09,366.85,343.78z M58.75,161.03c0.94-1.53,2.43-2.28,2.59-3.85c0.21-2.15,0.23-4.32,0.3-6.48
	c0.04-1.36,0.01-2.73,0.01-4.33C59.19,151.01,58.3,155.69,58.75,161.03z M396.54,328c2.47,0.86,3.6-0.45,4.53-2.49
	C399.27,326.01,398.03,327.13,396.54,328z"/>
<path class="st1" d="M255.09,130.77c0.52-0.92,1.04-1.84,1.56-2.75c0.53-0.96,1.04-1.93,1.61-2.87c0.48-0.79,0.12-0.92-0.6-0.9
	c-2.03,0.05-4.06,0.09-6.09,0.12c-3.43,0.04-6.85,0.05-10.28,0.08c-1.02-0.3-2.06-0.14-3.09-0.1c-1.62-0.49-3.29-0.23-4.94-0.31
	c-3.74-0.18-7.45-0.51-11.16-1.02c-3.42-0.47-4.95-2.98-5.95-5.8c-1.95-5.53-2.16-11.31-2.1-17.11c0.01-0.62,0.38-1.02,0.72-1.44
	c3.52-4.3,6.94-8.7,10.75-12.75c1.61-1.71,1.68-3.62,1.45-5.67c-0.09-0.74-0.41-1.46-0.63-2.19c-0.09-0.98-0.54-1.83-0.9-2.71
	c-0.88-1.69-1.77-3.36-3.64-4.21c-0.48-0.22-0.54-0.47,0.01-0.76c2.18-1.16,4.37-2.3,6.5-3.55c0.86-0.51,1.44-0.31,2.13,0.2
	c1.63,1.2,3.15,2.55,5.08,3.31c0.79,0.31,1.54,0.68,2.39,0.78c1.09,0.32,2.16,0.66,3.32,0.59c1.29,0.42,2.59,0.12,3.88,0.01
	c2.78-0.24,4.13-1.33,4.72-4.1c0.53-2.49,0.67-5.02,0.76-7.57c0.11-3.14,0.19-6.29,1.4-9.31c1.42-3.53,3.51-6.42,6.77-8.46
	c2.44-1.53,4.79-3.19,7.17-4.79c1.46-0.95,2.92-1.9,4.38-2.85c1.05-0.7,2.28-1.09,3.22-1.97c1.02-0.36,2.03-0.72,3.05-1.09
	c4.22-0.81,8.51-0.79,12.77-1.05c2.33-0.14,4.65-0.34,6.99-0.35c5.6-0.02,10.86,1.35,15.92,3.7c4.82,2.24,8.88,5.57,13.2,8.58
	c4.81,3.35,6.31,8.2,7.23,13.43c1.51,8.57,1.8,17.25,1.17,25.88c-0.37,5.15,2.34,8.31,5.33,11.54c2.77,2.99,6,5.52,9.21,8.03
	c1.91,1.49,3.79,3.04,5.6,4.63c3.09,2.72,2.94,4.78,0.64,7.88c-2.56,3.44-6.26,5.44-10.21,6.89c-2.37,0.87-4.93,0.76-7.43,0.78
	c-1.36,0.01-2.71,0.11-4.06,0.26c-1.09,0-2.18,0-3.26,0c-1.27,0.02-2.54,0.05-3.81,0.05c-12.91,0.02-25.83,0.06-38.74-0.36
	c-1.88-0.06-2.42,0.4-3.02,2.22c-0.59,2.29-1.36,4.55-1.38,6.95c-0.46,2.95-0.52,5.94-0.42,8.89c0.32,9.69-0.91,19.23-2.3,28.77
	c-0.53,3.61-1.16,7.21-1.35,10.86c-0.07,0.09-0.14,0.18-0.21,0.26c-0.03,0.02-0.03,0.06-0.02,0.13c-0.04,0.74-0.09,1.49-0.13,2.23
	c-0.46,1.85-0.57,3.75-0.82,5.63c-0.45,3.44-0.87,6.88-1.3,10.32c-0.82,6.33-1.65,12.66-2.47,18.99c-0.19,1.2-0.45,2.39-0.56,3.59
	c-0.27,2.79-0.88,5.54-0.95,8.35c-0.31,0.86-0.39,1.76-0.42,2.67c-0.14,0.88-0.29,1.76-0.41,2.64c-0.99,7.22-1.98,14.44-2.95,21.66
	c-0.72,5.34-1.44,10.68-2.08,16.03c-0.37,3.08-2.13,4.85-4.95,5.77c-1.72,0.48-3.48,0.58-5.27,0.57c-0.88,0-1.67-0.16-2.39-0.64
	c-3.12-4.02-5.49-8.51-7.87-12.99c-1.6-3.01-3.22-6.02-4.83-9.03c-0.8-1.66-1.53-3.36-2.53-4.92c-0.27-1.02-0.8-1.93-1.25-2.88
	c-2.59-5.48-5.15-10.96-7.72-16.44c-0.42-0.82-0.84-1.64-1.27-2.46c-0.01-0.12,0.01-0.26-0.04-0.36c-3.61-7.48-7-15.05-10.27-22.68
	c-0.3-0.7-0.36-1.34-0.12-2.08c1.38-4.25,3.5-8.16,5.35-12.2c1.39-3.03,3.11-5.9,4.33-9.01c1.34-1.87,2.03-4.06,3.07-6.08
	c3.35-6.52,6.9-12.92,10.42-19.34c2.35-4.35,4.7-8.7,7.04-13.05C250.41,139.48,252.75,135.12,255.09,130.77z"/>
<path class="st1" d="M157.48,114.38c-0.97-0.13-1.92-0.41-2.92-0.28c-2.57-0.8-3.73-0.17-4.47,2.28c-0.4,1.32-0.46,2.67-0.51,4.01
	c-0.08,2.49-0.3,4.98,0.15,7.46c0.02,0.63-0.4,0.63-0.85,0.61c-4.38-0.22-8.77-0.44-13.15-0.66c-4.06-0.24-8.12-0.51-12.18-0.71
	c-2.8-0.14-5.6-0.17-8.41-0.27c-3.4-0.12-6.77,0.13-10.14,0.53l0.01,0.02c-0.09-0.96,0.76-1.32,1.27-1.85
	c3.24-3.41,6.43-6.88,9.82-10.12c1.98-1.89,4.7-2.75,7.03-4.16c0.43-0.26,0.89-0.48,1.32-0.75c1.44-0.9,2.93-1.45,4.71-1.34
	c2.46,0.15,4.89-0.45,7.32-0.76c1.89-0.24,3.8-0.48,5.68-0.61c4.64-0.31,8.76-2.07,12.9-3.88c4.42-1.93,8.83-3.9,13.25-5.85
	c0.36-0.16,0.73-0.14,1.1,0.05c2.65,1.38,4.81,0.11,5.91-1.93c0.71-1.32,1.6-2.11,2.88-2.62c2.78-1.1,5.36-2.57,7.99-3.96
	c3.83-2.01,7.64-4.06,11.43-6.16c0.97-0.53,1.13-0.3,1.16,0.69c0.05,1.97,0.81,3.58,2.47,4.76c0.51,0.36,1.07,0.19,1.71,0.5
	c-1.6,1.86-3.19,3.65-4.7,5.51c-0.92,1.13-2.13,2.06-2.65,3.5c-1.16,0.87-2.03,1.99-2.8,3.2c-0.14,0.09-0.31,0.16-0.4,0.28
	c-2.49,3.11-5,6.2-7.46,9.34c-1.39,1.78-3.13,2.92-5.33,3.43c-4.53,1.04-9.11,0.78-13.68,0.48
	C163.13,114.94,160.31,114.63,157.48,114.38z"/>
<path class="st1" d="M131.7,75.51c3.32-3.26,6.41-6.75,9.57-10.16c0.81-0.87,1.63-1.73,2.32-2.69c0.61-0.83,1.32-0.99,2.28-0.93
	c5.7,0.35,11.31-0.27,16.84-1.68c0.46-0.12,1.05,0.15,1.4-0.37c1.23,0.09,2.3-0.52,3.44-0.83c0.94-0.19,1.38-0.77,1.31-1.72
	c-0.07-0.9,0.35-1.47,1.06-2.01c2.75-2.06,4.77-4.82,6.92-7.44c1.83-2.23,3.56-4.54,5.6-6.59c0.57-0.58,1.2-1.22,2.08-0.97
	c0.98,0.28,1.22,1.18,1.42,2.09c0.61,2.81,0.35,5.6-0.31,8.34c-1.76,7.31-4.23,14.4-6.7,21.5c-0.18,0.51-0.43,0.79-0.94,1.07
	c-4.95,2.71-10,5.24-15,7.85c-6.32,3.3-12.71,6.46-19,9.82c-1.48,0.79-2.99,1.52-4.45,2.35c-0.67,0.38-1.13,0.34-1.67-0.2
	c-3.68-3.7-7.8-6.92-11.73-10.34c-0.74-0.64-0.82-1.01-0.02-1.65c1.03-0.82,1.97-1.75,2.79-2.78
	C129.86,77.27,130.78,76.39,131.7,75.51z"/>
<path class="st1" d="M238.3,405.24c-4.7-0.14-9.41-0.23-14.11-0.43c-5.33-0.23-10.67-0.39-15.99-0.9c-2.32-0.22-4.64-0.33-6.97-0.5
	c-0.38-0.34-0.14-0.79-0.22-1.19c-1.69-9.27-3.02-18.6-4.24-27.94c1.91-0.3,3.82,0.04,5.71,0.19c3.95,0.31,7.9,0.22,11.85,0.25
	c7.14,0.04,14.29-0.05,21.44-0.05c0.88,0,1.75-0.38,2.63-0.05c0.01,9.96,0.02,19.91,0.02,29.87
	C238.43,404.74,238.34,404.99,238.3,405.24z"/>
<path class="st1" d="M308.86,396.18c-1.14,0.86-2.55,1.06-3.84,1.52c-3.63,1.29-7.43,1.87-11.19,2.66
	c-3.19,0.67-6.41,1.23-9.62,1.78c-1.84,0.32-3.7,0.5-5.56,0.68c-0.76,0.07-1.52,0.13-2.26,0.36c-0.02-0.81-0.05-1.61-0.05-2.42
	c-0.01-9.86-0.01-19.73-0.01-29.59c2.81-0.84,5.74-0.97,8.6-1.52c2.49-0.48,4.98-0.95,7.47-1.42c3.45-0.65,6.87-1.42,10.29-2.21
	c3.18-0.73,6.33-1.57,9.48-2.39c0.89-0.23,1.85-0.17,2.69-0.59C313.02,374.11,310.91,385.14,308.86,396.18z"/>
<path class="st1" d="M100.3,179.21c0.08,0.97,0.72,1.76,0.9,2.69c-0.16,0.96,0.07,1.94-0.16,2.91c-0.69,2.98-2.13,5.56-4.01,7.96
	c-2.41,3.07-5.2,4.78-9.19,3.26c-0.92-0.43-1.84-0.86-2.77-1.29c-0.92-0.73-1.83-1.48-2.76-2.2c-2.26-1.75-2.19-4.32-2.41-6.79
	c-0.11-1.18-0.17-2.36-0.25-3.54c0.11-1.05,0.12-2.11,0.01-3.16c0.02-3.31-0.11-6.62,0.07-9.94c0.25-4.58,0.47-9.15,0.69-13.73
	c0.02-0.37,0.16-0.61,0.38-0.9c5.19-6.41,10.49-12.71,16.08-18.77c1.4-1.52,2.8-3.05,4.45-4.85c-0.77,4.91-0.63,9.48-0.53,14.03
	c0.09,4.16,0.27,8.32,0.44,12.48c0.18,4.5-0.7,8.86-1.59,13.24C99.07,173.52,99.05,176.43,100.3,179.21z"/>
<path class="st1" d="M240.82,374.35c2.41-0.14,4.83-0.27,7.24-0.43c4.23-0.28,8.47-0.48,12.69-0.91c4.35-0.44,8.66-1.32,13.04-1.48
	c0,5.1,0.01,10.19,0,15.29c-0.01,5.56-0.03,11.12-0.05,16.68c-2.53,0.21-5.06,0.46-7.59,0.63c-5.38,0.36-10.76,0.83-16.16,0.81
	c-3.02-0.01-6.03,0.11-9.05,0.18c0.01-0.38,0.03-0.75,0.03-1.13c0-9.55,0-19.11,0-28.66C240.98,375,241.03,374.66,240.82,374.35z"/>
<path class="st1" d="M317.59,362.32c1.79-0.94,3.79-1.26,5.69-1.89c3.55-1.17,7.15-2.22,10.69-3.43c4.44-1.53,8.85-3.18,13.27-4.78
	c0.57-0.21,1.23-0.94,1.7-0.43c0.41,0.44-0.27,1.14-0.51,1.69c-3.2,7.15-6.41,14.29-9.65,21.42c-1.46,3.22-3.02,6.39-4.51,9.6
	c-0.21,0.44-0.46,0.75-0.91,0.99c-5.48,2.87-11.09,5.49-16.79,7.88c-1.59,0.67-3.24,1.19-4.86,1.77
	C313.71,384.21,315.86,373.3,317.59,362.32z"/>
<path class="st1" d="M93.34,117.24c1.25-1.91,1.64-4.06,1.72-6.28c0.04-1.15,0.15-2.32-0.01-3.44c-0.41-2.91,1.05-4.71,3.3-6.18
	c4.4-2.88,8.78-5.81,13.15-8.75c1.45-0.97,2.85-2.01,4.24-3.05c0.64-0.48,1.08-0.56,1.46,0.28c0.2,0.46,0.5,0.89,0.81,1.29
	c0.46,0.62,0.51,1.25,0.09,1.88c-1.15,1.72-1.62,3.63-1.52,5.68c0.03,0.66-0.23,0.86-0.88,0.91c-2.57,0.23-5.14,0.52-7.71,0.79
	c-0.08,0.01-0.17,0.01-0.25,0.04c-0.56,0.21-1.48,0.15-1.37,1.01c0.11,0.87,0.99,0.65,1.58,0.62c4.54-0.28,9.06-0.77,13.62-0.53
	c0.21,0.01,0.43,0.01,0.64,0.01c0.95,0,2.02,0.21,2.09,1.23c0.06,0.97-0.94,1.61-1.82,1.86c-1.79,0.5-3.63,0.81-5.45,1.21
	c-0.38,0.09-0.76,0.16-1.13,0.05c-0.82-0.24-1.49-0.2-2.2,0.45c-0.76,0.7-1.91,0.59-2.88,0.83c-0.69,0.17-1.4,0.33-2.05,0.61
	c-0.59,0.25-1.42,0.39-1.42,1.25c0,0.88,0.59,1.33,1.87,1.31c-9.72,8.65-19.08,17.12-28.07,26.02c0.58-2.09,1.88-3.76,2.87-5.6
	c0.57-0.88,1.14-1.76,1.72-2.64c1.49-2.05,2.99-4.11,4.48-6.16C91.43,120.49,92.68,119.06,93.34,117.24z"/>
<path class="st1" d="M198.03,50.93c1.16-1.92,2.32-3.84,3.49-5.76c1.38-2.35,3.83-1.97,5.97-2.28c2.28-0.33,4.6-0.18,6.85,0.27
	c3.96,0.79,6.71,3.27,8.71,6.66c0.25,0.43,0.41,0.91,0.43,1.44c0.12,2.57-0.08,2.61-2.62,2.5c-2.26-0.1-4.57,0.09-6.69,1.08
	c-4.49,2.09-8.87,4.4-13.27,6.66c-3.1,1.59-6.28,3.02-9.32,4.72c-0.24,0.13-0.56,0.12-1.13,0.23
	C193.04,61.14,195.53,56.04,198.03,50.93z"/>
<path class="st1" d="M198.45,403.15c-2.03-0.64-3.39-2.25-4.99-3.48c-4.62-3.57-8.6-7.78-11.75-12.7
	c-2.18-3.42-3.65-7.14-4.24-11.19c-0.1-0.67-0.3-1.31-0.29-2.02c0.01-0.86,0.27-1.17,1.11-1.04c5.03,0.81,10.12,0.87,15.18,1.26
	c0.24,0.02,0.47,0.17,0.71,0.26c0.54,3.79,1.05,7.58,1.61,11.37C196.66,391.45,197.56,397.3,198.45,403.15z"/>
<path class="st1" d="M213.31,78.04c-1.83,1.92-3.66,3.83-5.68,5.94c0.05-1.84-0.32-3.26-1.4-4.46c-0.38-0.42,0-0.72,0.44-0.95
	c2.9-1.54,5.78-3.1,8.66-4.67c0.76-0.41,1.41-1.04,2.38-1.12c-0.38,0.85-1.33,1.21-1.61,2.08C215.1,75.86,214.15,76.91,213.31,78.04
	z"/>
<path class="st1" d="M105.01,127.34c-0.06,0.05-0.11,0.1-0.17,0.14c-0.01-0.06-0.01-0.12-0.02-0.17c0.07,0.02,0.13,0.03,0.2,0.05
	C105.02,127.36,105.01,127.34,105.01,127.34z"/>
<path class="st0" d="M167.82,325.66c-6.51,0-13.02-0.02-19.53,0.02c-1.27,0.01-1.8-0.15-2.05-1.67c-0.98-5.87-1.75-11.75-2.37-17.66
	c-0.11-1.03,0.13-1.34,1.18-1.32c3.62,0.05,7.23-0.03,10.85,0.03c0.93,0.01,1.14-0.29,1.14-1.15c-0.02-7.53,0.01-15.06-0.04-22.59
	c-0.01-1.03,0.26-1.29,1.26-1.29c9.15,0.03,18.29,0.02,27.44,0c0.87,0,1.26,0.13,1.3,1.16c0.24,6.79,0.51,13.58,0.85,20.37
	c0.37,7.16,0.61,14.34,1.29,21.48c0.25,2.62,0.25,2.63-2.43,2.63C180.41,325.66,174.12,325.65,167.82,325.66z"/>
<path class="st0" d="M276.35,302.77c0-7.11,0.02-14.21-0.02-21.32c-0.01-1.11,0.28-1.48,1.42-1.44c2.38,0.09,4.77,0.07,7.15,0.01
	c0.93-0.02,1.28,0.23,1.28,1.2c0,3.07,0.07,6.15,0.13,9.22c0.01,0.56-0.23,1.06-0.14,1.69c0.18,1.27,1.15,1.18,1.78,1.07
	c0.58-0.09,1.16-0.14,1.73-0.14c11.19-0.02,22.38,0,33.58-0.04c1.13,0,1.42,0.25,1.29,1.41c-0.99,8.99-2.21,17.96-3.44,26.92
	c-0.16,1.14-0.29,2.28-0.39,3.42c-0.06,0.63-0.33,0.89-0.98,0.87c-0.76-0.03-1.53,0.02-2.3,0.02c-12.89,0-25.79,0-38.68,0
	c-2.4,0-2.41,0-2.41-2.33C276.35,316.47,276.35,309.62,276.35,302.77z"/>
<path class="st0" d="M215.06,325.66c-7.32,0-14.63-0.02-21.95,0.02c-0.95,0.01-1.29-0.2-1.35-1.22c-0.34-5.98-0.82-11.94-1.07-17.93
	c-0.32-7.98-0.77-15.95-0.98-23.93c-0.07-2.52-0.11-2.53,2.47-2.55c1.79-0.01,3.57,0.03,5.36-0.01c0.7-0.02,1.04,0.24,1.37,0.84
	c3.03,5.59,6.11,11.14,9.13,16.73c0.4,0.75,0.85,1,1.68,0.99c9.15-0.02,18.29,0.01,27.44-0.04c1.07-0.01,1.27,0.32,1.27,1.28
	c-0.02,8.21-0.02,16.42,0.01,24.63c0,0.88-0.26,1.17-1.17,1.17c-7.4-0.03-14.8-0.02-22.21-0.02
	C215.06,325.63,215.06,325.64,215.06,325.66z"/>
<path class="st0" d="M157.08,155.69c0-7.32-0.03-14.63,0.03-21.95c0.01-1.27-0.27-1.82-1.59-1.58c-0.78,0.14-1.06-0.19-0.97-0.98
	c0.08-0.68,0.56-0.53,0.94-0.54c1.62-0.02,3.23-0.01,4.85-0.01c9.7,0,19.4,0.03,29.1-0.03c1.22-0.01,1.32,0.31,1.23,1.43
	c-0.45,5.89-0.79,11.78-1.14,17.67c-0.25,4.24-0.52,8.48-0.67,12.72c-0.07,1.9-1.13,3.34-1.95,4.89c-1.93,3.67-3.99,7.26-5.94,10.92
	c-0.4,0.75-0.86,0.99-1.67,0.99c-7.02-0.03-14.04-0.03-21.06,0.01c-0.95,0.01-1.21-0.26-1.2-1.21c0.04-7.44,0.02-14.89,0.02-22.33
	C157.07,155.69,157.07,155.69,157.08,155.69z"/>
<path class="st0" d="M120.2,325.66c-7.23,0-14.47,0-21.7,0c-0.3,0-0.6-0.02-0.89,0c-1.12,0.06-1.57-0.41-1.76-1.57
	c-1.06-6.49-2.11-12.99-2.95-19.52c-0.62-4.8-1.29-9.59-1.76-14.41c-0.29-3-0.63-5.99-0.97-8.98c-0.1-0.86,0.11-1.16,0.96-1.16
	c6.04,0.02,12.08,0.04,18.13,0c0.97-0.01,0.87,0.52,0.86,1.13c0,7.49,0.03,14.98-0.02,22.47c-0.01,1.15,0.27,1.48,1.45,1.47
	c9.36-0.06,18.72-0.02,28.08-0.07c1.24-0.01,1.58,0.31,1.73,1.58c0.69,5.85,1.22,11.73,2.34,17.53c0.27,1.39,0.18,1.53-1.29,1.53
	C135.01,325.66,127.61,325.66,120.2,325.66z"/>
<path class="st0" d="M273.79,302.84c0,7.15-0.03,14.29,0.03,21.44c0.01,1.14-0.32,1.41-1.43,1.4c-10-0.04-20-0.04-29.99,0
	c-1.15,0.01-1.5-0.29-1.49-1.48c0.05-8.17,0.04-16.34,0-24.5c0-0.93,0.32-1.13,1.17-1.13c5.28,0.03,10.55,0.01,15.83,0.01
	c1.56,0,1.63-0.07,0.96-1.43c-2.6-5.28-5.22-10.56-7.83-15.84c-0.62-1.26-0.61-1.3,0.78-1.3c6.89,0,13.78,0.05,20.68,0
	c1.13-0.01,1.32,0.4,1.31,1.39C273.78,288.55,273.79,295.69,273.79,302.84C273.78,302.84,273.79,302.84,273.79,302.84z"/>
<path class="st0" d="M157.05,254.26c0-7.28,0.03-14.55-0.03-21.83c-0.01-1.04,0.36-1.18,1.24-1.17c4.08,0.03,8.17,0.04,12.26-0.01
	c0.84-0.01,1.33,0.24,1.71,0.98c1.33,2.51,2.7,4.99,4.06,7.47c3.16,5.75,6.26,11.53,9.52,17.22c0.89,1.55,0.69,3.11,0.77,4.68
	c0.26,4.93,0.02,9.87,0.4,14.79c0.08,1.03-0.47,1.08-1.23,1.08c-5.4-0.01-10.81-0.01-16.21-0.01c-3.7,0-7.4-0.02-11.11,0.04
	c-1.07,0.02-1.45-0.24-1.44-1.41C157.07,268.81,157.04,261.53,157.05,254.26C157.04,254.26,157.04,254.26,157.05,254.26z"/>
<path class="st0" d="M74.66,277.47c-3.7,0-7.4-0.03-11.11,0.02c-1.07,0.02-1.33-0.35-1.36-1.39c-0.32-10.15-0.71-20.29-1.04-30.43
	c-0.15-4.46-0.19-8.92-0.32-13.38c-0.02-0.76,0.18-1.03,0.99-1.03c7.36,0.02,14.72,0.02,22.08-0.01c0.76,0,1.04,0.23,1.05,0.99
	c0.05,2.81,0.16,5.61,0.22,8.42c0.14,6.42,0.6,12.82,0.86,19.23c0.1,2.36,0.03,4.74,0.19,7.08c0.14,2.07,0.31,4.18,0.71,6.24
	c0.16,0.84,0.16,1.69,0.19,2.53c0.08,1.76,0.07,1.74-1.76,1.73C81.81,277.45,78.23,277.46,74.66,277.47
	C74.66,277.46,74.66,277.47,74.66,277.47z"/>
<path class="st0" d="M110.11,254.31c0,7.32-0.01,14.63,0.01,21.95c0,0.76,0,1.24-1.03,1.23c-6.04-0.05-12.08-0.05-18.12-0.01
	c-0.93,0.01-1.2-0.25-1.26-1.2c-0.27-4.41-0.71-8.8-0.96-13.21c-0.34-5.97-0.48-11.96-0.87-17.92c-0.28-4.25-0.08-8.49-0.32-12.73
	c-0.05-0.91,0.25-1.16,1.13-1.15c6.81,0.03,13.61,0.04,20.42,0c0.93-0.01,1,0.37,1,1.11C110.1,239.68,110.11,247,110.11,254.31
	L110.11,254.31z"/>
<path class="st0" d="M87.85,196.04c3.99,1.52,6.78-0.19,9.19-3.26c1.88-2.4,3.32-4.98,4.01-7.96c0.23-0.97-0.01-1.95,0.16-2.91
	c2.72-0.03,5.44-0.05,8.16-0.1c0.56-0.01,0.77,0.2,0.73,0.74c-0.02,0.3,0,0.6,0,0.89c0,14.63-0.01,29.25,0.03,43.88
	c0,1.07-0.17,1.42-1.35,1.41c-6.63-0.07-13.27-0.05-19.9-0.02c-0.93,0-1.32-0.13-1.31-1.22c0.01-4.5-0.28-9.01-0.12-13.51
	c0.2-5.56,0.01-11.13,0.28-16.68C87.74,196.88,87.8,196.46,87.85,196.04z"/>
<path class="st0" d="M396.01,130.64c3.62,0,7.23,0.03,10.85-0.02c1.02-0.01,1.42,0.16,1.46,1.37c0.26,9.64,1.09,19.26,1.16,28.92
	c0.04,5.69,0.32,11.39,0.33,17.09c0,0.93-0.2,1.25-1.19,1.24c-4.08-0.06-8.17-0.04-12.25-0.01c-0.94,0.01-1.18-0.24-0.92-1.17
	c0.83-2.98,1.48-5.99,1.89-9.07c0.97-7.34,0.9-14.59-1.73-21.61c-2.25-5.99-5.68-11.2-10.69-15.3c-0.4-0.32-1.19-0.63-0.98-1.18
	c0.2-0.54,0.98-0.22,1.49-0.22c3.53-0.02,7.06-0.01,10.6-0.01C396.01,130.65,396.01,130.64,396.01,130.64z"/>
<path class="st0" d="M409.25,227.72c-2.17-3.83-4.11-7.6-6.55-11.08c-2.72-3.87-5.68-7.55-8.98-10.96
	c-1.96-2.03-4.01-3.96-6.01-5.94c-0.52-0.51-0.43-0.8-0.17-1.27c2.69-5.02,4.7-10.32,6.46-15.71c0.23-0.69,0.57-0.92,1.28-0.92
	c4.34,0.01,8.67,0.01,13.01-0.03c1.08-0.01,1.51,0.34,1.5,1.46c-0.1,8.25,0.09,16.49-0.13,24.74c-0.13,4.88-0.38,9.76-0.4,14.65
	C409.25,224.34,409.25,226.03,409.25,227.72z"/>
<path class="st0" d="M157.06,205.37c0-7.44,0.02-14.89-0.02-22.33c-0.01-1.01,0.36-1.23,1.26-1.23c6.25,0.02,12.5,0.01,18.75,0.01
	c1.77,0,1.85,0.12,1.01,1.64c-5.29,9.59-10.57,19.18-15.88,28.76c-0.36,0.66-0.38,1.18,0.01,1.87c2.55,4.53,5.05,9.09,7.57,13.64
	c0.31,0.56,0.49,0.99-0.49,0.98c-3.79-0.03-7.57-0.04-11.36,0.01c-0.95,0.01-0.86-0.53-0.86-1.14
	C157.06,220.17,157.05,212.77,157.06,205.37L157.06,205.37z"/>
<path class="st0" d="M341.98,254.38c0-7.27,0.02-14.54-0.02-21.81c-0.01-1.04,0.25-1.35,1.34-1.33c3.31,0.08,6.64,0.14,9.95-0.02
	c1.75-0.08,2.65,0.81,3.48,2.05c3.64,5.45,1.53,9.91-2.05,14.01c-0.64,0.73-1.32,1.47-2.11,2.02c-1.01,0.69-1.22,1.56-1.21,2.7
	c0.05,8.08,0.03,16.16,0.08,24.23c0.01,0.93-0.22,1.27-1.2,1.24c-2.34-0.07-4.68-0.06-7.01-0.01c-0.97,0.02-1.28-0.25-1.27-1.28
	C342,268.92,341.97,261.65,341.98,254.38C341.97,254.38,341.98,254.38,341.98,254.38z"/>
<path class="st0" d="M157.48,114.38c2.82,0.25,5.65,0.56,8.47,0.75c4.57,0.3,9.15,0.56,13.68-0.48c2.21-0.51,3.94-1.65,5.33-3.43
	c2.46-3.14,4.96-6.23,7.46-9.34c0.1-0.12,0.27-0.19,0.4-0.28c0.17,3.35-0.47,6.65-0.65,9.99c-0.23,4.45-0.63,8.89-0.97,13.34
	c-0.06,0.84-0.17,1.68-0.21,2.52c-0.04,0.79-0.61,0.56-1.02,0.56c-2.98,0.01-5.95,0-8.93,0c-8.21,0-16.42,0-24.63,0.04
	c-1.03,0-1.41-0.14-1.18-1.33c0.71-3.74,1.28-7.5,1.91-11.25C157.22,115.09,157.37,114.74,157.48,114.38z"/>
<path class="st0" d="M276.36,254.37c0-7.27,0.03-14.54-0.03-21.81c-0.01-1.1,0.31-1.35,1.35-1.31c2.25,0.08,4.51,0.05,6.76,0.01
	c0.75-0.01,1.12,0.21,1.06,1c-0.02,0.3,0.01,0.59,0.01,0.89c0.11,11.69,0.17,23.38,0.38,35.07c0.05,2.67,0.06,5.35,0.16,8.02
	c0.04,0.93-0.21,1.27-1.19,1.25c-2.42-0.07-4.85-0.07-7.27,0c-1.03,0.03-1.28-0.3-1.27-1.3c0.04-7.27,0.02-14.54,0.02-21.81
	C276.36,254.37,276.36,254.37,276.36,254.37z"/>
<path class="st0" d="M276.2,197.74c0.43-3.44,0.85-6.88,1.3-10.32c0.25-1.88,0.36-3.78,0.82-5.63c1.85,0.04,3.7,0.15,5.55,0.1
	c0.8-0.02,0.89,0.26,0.9,0.94c0.09,4.25,0.11,8.49,0.2,12.74c0.22,10.62,0.25,21.24,0.42,31.86c0.02,1.12-0.34,1.34-1.35,1.31
	c-2.21-0.07-4.42-0.07-6.63,0c-0.85,0.02-1.07-0.23-1.07-1.06c0.03-9.35,0.03-18.7,0.02-28.04
	C276.37,198.99,276.5,198.34,276.2,197.74z"/>
<path class="st0" d="M351.47,228.7c-2.96,0-5.92,0-8.87,0c-0.42,0-0.64-0.15-0.61-0.59c0.02-0.3,0-0.6,0-0.89
	c0-14.63,0.01-29.26,0.01-43.89c0-0.72-0.15-1.48,1-1.48c4.03,0.02,8.05,0.01,12.22,0.01c-0.64,1.51-1.64,2.66-2.74,3.55
	c-2.48,2.01-2.83,4.53-2.79,7.53c0.13,10.59,0.04,21.18,0,31.77c-0.01,1.58-0.1,3.13,1.97,3.67
	C351.59,228.48,351.53,228.59,351.47,228.7z"/>
<path class="st0" d="M261.41,277.43c2.82-0.92,4.58-2.69,4.95-5.77c0.64-5.35,1.36-10.69,2.08-16.03
	c0.97-7.22,1.96-14.44,2.95-21.66c0.12-0.88,0.27-1.76,0.41-2.64c0.38-0.02,0.76-0.02,1.14-0.07c0.69-0.08,0.86,0.24,0.86,0.88
	c-0.01,14.78-0.02,29.56,0,44.34c0,0.82-0.32,0.99-1.05,0.98C268.97,277.43,265.19,277.44,261.41,277.43z"/>
<path class="st0" d="M191.92,157.98c0-2.14-0.15-4.08,0.03-6c0.47-5.16,0.66-10.33,1.03-15.49c0.12-1.69,0.3-3.38,0.38-5.07
	c0.03-0.62,0.25-0.79,0.84-0.79c3.99,0.01,7.99-0.01,11.98-0.01c1.11,0,0.49,0.63,0.31,0.97c-1.87,3.46-3.76,6.9-5.65,10.35
	c-2.84,5.19-5.68,10.38-8.52,15.57C192.25,157.62,192.15,157.7,191.92,157.98z"/>
<path class="st0" d="M349.52,179.21c-2.17,0-4.33-0.02-6.5,0.01c-0.7,0.01-1.06-0.09-1.05-0.95c0.05-4.16,0.03-8.33,0.01-12.49
	c0-0.73,0.2-0.99,0.95-0.86c4.28,0.72,8.44,1.81,12.14,4.18c2.41,1.55,3.53,4.79,2.69,7.65c-0.88,3.03-0.22,2.35-3.14,2.46
	c-0.85,0.03-1.7,0-2.55,0C351.22,179.21,350.37,179.21,349.52,179.21L349.52,179.21z"/>
<path class="st0" d="M278.68,179.16c0.19-3.65,0.83-7.25,1.35-10.86c1.39-9.54,2.62-19.08,2.3-28.77c-0.1-2.95-0.04-5.95,0.42-8.89
	c1.75-0.27,1.29,0.86,1.3,1.88c0.02,4.92,0.12,9.84,0.19,14.77c0.08,5.69,0.15,11.38,0.24,17.07c0.07,4.58,0.15,9.16,0.28,13.74
	c0.03,0.91-0.25,1.17-1.13,1.13C281.99,179.15,280.33,179.18,278.68,179.16z"/>
<path class="st0" d="M284.14,123.69c0.6-1.83,1.14-2.29,3.02-2.22c12.91,0.42,25.82,0.37,38.74,0.36c1.27,0,2.54-0.03,3.81-0.05
	c0.88,0.46,0.52,1.31,0.45,1.93c-0.08,0.66-0.84,0.33-1.29,0.33c-14.5,0.01-29,0.01-43.51-0.01
	C284.94,124.03,284.4,124.32,284.14,123.69z"/>
<path class="st0" d="M227.54,182.3c-1.22,3.11-2.95,5.98-4.33,9.01c-1.85,4.04-3.97,7.95-5.35,12.2c-0.24,0.74-0.18,1.38,0.12,2.08
	c3.26,7.63,6.66,15.2,10.27,22.68c0.05,0.1,0.03,0.24,0.04,0.36c-3.07,0.23-3.09,0.24-4.47-2.51c-2.25-4.5-4.47-9.02-6.7-13.53
	c-0.08-0.15-0.21-0.31-0.21-0.46c0.06-4.11-1.06-8.31,0.97-12.25c2.21-4.27,4.45-8.52,6.68-12.77c0.78-1.49,1.59-2.97,2.4-4.44
	C227.08,182.46,227.2,182.19,227.54,182.3z"/>
<path class="st0" d="M241.05,255.34c1.61,3.01,3.23,6.02,4.83,9.03c2.38,4.48,4.74,8.96,7.87,12.99c-1.35,0.23-2.71,0.04-4.06,0.11
	c-0.46,0.02-0.65-0.23-0.84-0.61c-2.55-5.16-5.24-10.25-7.62-15.49C240.39,259.54,240.98,257.36,241.05,255.34z"/>
<path class="st0" d="M229.55,231.1c2.57,5.48,5.14,10.97,7.72,16.44c0.45,0.95,0.98,1.86,1.25,2.88c0,1.54,0,3.09,0,4.64
	c-1.15-1.03-1.58-2.32-2.18-3.5c-3.2-6.42-6.34-12.88-9.55-19.29c-0.46-0.91-0.26-1.04,0.64-1.01
	C228.14,231.27,228.87,231.46,229.55,231.1z"/>
<path class="st0" d="M241.3,124.43c3.43-0.02,6.85-0.04,10.28-0.08c2.03-0.02,4.06-0.07,6.09-0.12c0.71-0.02,1.07,0.12,0.6,0.9
	c-0.57,0.94-1.08,1.91-1.61,2.87c-4.79,0-9.59-0.03-14.38,0.02c-1.05,0.01-1.53-0.28-1.32-1.35
	C241.1,125.94,240.58,125.09,241.3,124.43z"/>
<path class="st0" d="M149.74,127.84c-0.45-2.48-0.24-4.98-0.15-7.46c0.05-1.34,0.11-2.69,0.51-4.01c0.74-2.45,1.9-3.08,4.47-2.28
	c0,1.74-0.43,3.43-0.68,5.14c-0.33,2.21-0.8,4.41-1.14,6.62C152.38,128.24,152.21,128.38,149.74,127.84z"/>
<path class="st0" d="M189.55,263.86c2.45,4.46,4.9,8.92,7.46,13.58c-2.45,0-4.68-0.01-6.9,0c-0.55,0-0.57-0.34-0.59-0.76
	C189.3,272.45,189.28,268.21,189.55,263.86z"/>
<path class="st0" d="M255.09,130.77c-2.34,4.35-4.68,8.71-7.02,13.06c-2.34,4.35-4.69,8.7-7.04,13.05
	c-0.18-0.88,0.09-1.64,0.51-2.42c2.24-4.25,4.43-8.52,6.65-12.78c1.81-3.47,3.65-6.93,5.46-10.41
	C254,130.61,254.43,130.42,255.09,130.77z"/>
<path class="st0" d="M406.78,269.62c0.32,2.49-0.3,4.74-0.3,7.03c0,0.59-0.27,0.82-0.86,0.81c-1.18-0.01-2.73,0.48-3.41-0.22
	c-0.46-0.48,0.94-1.74,1.48-2.67C404.65,272.94,405.68,271.37,406.78,269.62z"/>
<path class="st0" d="M272.21,228.67c0.07-2.81,0.68-5.56,0.95-8.35c0.12-1.21,0.37-2.4,0.56-3.59c0.01,3.74,0.02,7.47,0.05,11.21
	C273.78,229.34,272.75,228.46,272.21,228.67z"/>
<path class="st0" d="M278.45,179.55c-0.02-0.07-0.01-0.11,0.02-0.13c0.02,0.04,0.04,0.08,0.05,0.13
	C278.5,179.55,278.47,179.55,278.45,179.55z"/>
<path class="st0" d="M241.25,71.7c-0.25-0.45-0.3-0.91-0.3-1.43c0.02-10.58,0.03-21.17-0.02-31.75c0-1.06,0.31-1.46,1.31-1.46
	c4.8,0.02,9.6,0,14.4,0.06c2.2,0.02,4.41,0.04,6.61-0.05c0.9-0.04,1.88-0.18,2.71,0.4c-2.39,1.6-4.74,3.26-7.17,4.79
	c-3.26,2.04-5.35,4.93-6.77,8.46c-1.22,3.02-1.29,6.17-1.4,9.31c-0.09,2.55-0.23,5.08-0.76,7.57c-0.59,2.77-1.94,3.87-4.72,4.1
	C243.83,71.82,242.54,72.12,241.25,71.7z"/>
</svg>
