<?xml version="1.0" encoding="utf-8"?>
<!-- Generator: Adobe Illustrator 24.0.1, SVG Export Plug-In . SVG Version: 6.00 Build 0)  -->
<svg version="1.1" id="Layer_1" xmlns="http://www.w3.org/2000/svg" xmlns:xlink="http://www.w3.org/1999/xlink" x="0px" y="0px"
	 viewBox="0 0 100 100" style="enable-background:new 0 0 100 100;" xml:space="preserve">
<style type="text/css">
	.st0{fill:#FFFFFF;}
</style>
<g>
	<path class="st0" d="M45.34,47.66c-2.59,0-5.11,0-7.63,0c-0.46,0-1.04,0.14-1.35-0.09c-0.49-0.35-1.12-0.97-1.11-1.45
		c0.01-0.48,0.75-1.32,1.19-1.34c3.55-0.11,7.1-0.1,10.65-0.05c1.11,0.02,1.37,0.87,1.36,1.86c-0.02,3.64-0.01,7.28,0,10.92
		c0,0.32,0.03,0.64,0.05,1.1c2.38-0.52,4.7-1.02,7.01-1.53c0.16-0.17,0.31-0.34,0.47-0.51c-0.34-0.11-0.77-0.13-1.02-0.35
		c-2.15-1.93-3.4-4.33-3.47-7.25c-0.06-2.26-0.08-4.52,0.01-6.77c0.21-5.14,4.48-9.45,9.46-9.63c5.56-0.2,10.21,3.49,10.75,8.8
		c0.28,2.73,0.21,5.52,0.05,8.27c-0.17,3-1.79,5.34-4.29,7.37c2.1,0.47,3.95,0.92,5.82,1.28c2.2,0.43,4.06,1.4,5.59,3.05
		c0.35,0.38,1,0.64,1.52,0.65c2.53,0.07,5.07,0.02,7.61,0.04c1.78,0.01,2.22,0.46,2.22,2.21c0,7.61,0,15.21,0,22.82
		c0,1.77-0.44,2.22-2.18,2.22c-24.39,0-48.77,0-73.16,0c-1.66,0-2.12-0.47-2.13-2.13c-0.01-1.66-0.02-3.32,0-4.98
		c0.02-1.47,0.51-1.96,2.01-1.97c2.11-0.02,4.22,0,6.44,0c-0.01-3.26,1.56-5.09,4.77-5.51c0-0.93,0-1.81,0-2.83
		c-3.64,0-7.22,0-10.8,0c-2.1,0-2.42-0.31-2.42-2.38c0-7.51,0-15.03,0-22.54c0-1.88,0.37-2.24,2.26-2.25c3.04,0,6.08,0.01,9.13-0.01
		c1.06-0.01,1.88,0.3,1.87,1.5c-0.01,1.22-0.88,1.47-1.91,1.47c-2.71-0.01-5.43,0-8.22,0c0,7.1,0,14.08,0,21.13
		c3.35,0,6.66,0,10.19,0c0-1.25,0-2.52,0-3.79c0-1.2-0.02-2.4,0-3.6c0.05-2.58,1.89-4.52,4.37-4.61c2.52-0.09,4.56,1.8,4.69,4.43
		c0.07,1.24,0.02,2.49,0.03,3.73c0,1.24,0,2.48,0,3.81c3.43,0,6.76,0,10.18,0C45.34,61.77,45.34,54.79,45.34,47.66z M74.07,62.03
		c0.03-0.13,0.06-0.27,0.08-0.4c-2.47-0.55-4.94-1.1-7.47-1.66c-1.14,3.05-2.23,5.98-3.32,8.9c-0.33,0.87-0.62,1.83-1.79,1.81
		c-1.08-0.02-1.37-0.92-1.68-1.75c-1.1-2.97-2.21-5.93-3.35-8.97c-2.37,0.54-4.65,1.08-6.94,1.56c-0.94,0.2-1.23,0.68-1.19,1.63
		c0.08,1.75,0.02,3.5,0.02,5.25c0,3.17,0,3.17-3.01,3.6c0,2.68,0,5.37,0,8.12c7.47,0,14.85,0,22.37,0c0-0.57,0-1.07,0-1.56
		c0-4.74,0-9.49,0-14.23c0-1.82,0.45-2.27,2.29-2.29C71.42,62.02,72.74,62.03,74.07,62.03z M15.83,86.16c23.83,0,47.53,0,71.24,0
		c0-0.99,0-1.88,0-2.81c-23.79,0-47.49,0-71.24,0C15.83,84.32,15.83,85.18,15.83,86.16z M54.49,46.56c0,0.82-0.03,1.6,0.01,2.38
		c0.16,3.24,2.55,6.01,5.68,6.61c3.37,0.64,6.79-0.93,7.91-4.05c0.62-1.71,0.83-3.73,0.59-5.52c-0.1-0.78-1.81-1.34-2.8-1.99
		c-0.34-0.22-0.7-0.4-0.76-0.43c-1.83,0.87-3.37,1.87-5.06,2.34C58.33,46.38,56.46,46.35,54.49,46.56z M54.58,43.29
		c3.39,0.3,6.43-0.13,8.77-2.82c0.65-0.75,1.46-0.64,2.25-0.17c0.97,0.57,1.94,1.12,3,1.73c-0.05-3.71-3.48-6.6-7.37-6.42
		C57.25,35.8,54.22,39.25,54.58,43.29z M87.06,80.14c0-1,0-1.93,0-2.89c-5.42,0-10.75,0-16.12,0c0,1.01,0,1.94,0,2.89
		C76.36,80.14,81.69,80.14,87.06,80.14z M87.11,65.21c-5.48,0-10.83,0-16.18,0c0,1.02,0,1.91,0,2.8c5.44,0,10.79,0,16.18,0
		C87.11,67.03,87.11,66.17,87.11,65.21z M87.1,71.29c-5.47,0-10.82,0-16.19,0c0,0.97,0,1.83,0,2.75c5.42,0,10.77,0,16.19,0
		C87.1,73.11,87.1,72.25,87.1,71.29z M32.04,74.72c0.03-0.36,0.06-0.58,0.06-0.8c0-4.05-0.01-8.09,0.01-12.14
		c0-1.05-0.31-1.9-1.46-1.94c-1.24-0.04-1.61,0.84-1.58,1.95c0,0.05,0,0.09,0,0.14c0,3.91,0,7.82,0,11.72
		c0,0.35,0.07,0.69,0.11,1.07C30.16,74.72,31.03,74.72,32.04,74.72z M35.21,74.69c3.25,0.36,4.75,2.32,4.86,5.4c0.8,0,1.46,0,2.11,0
		c0-2.79,0-5.48,0-8.14c-2.39,0-4.67,0-6.98,0C35.21,72.9,35.21,73.75,35.21,74.69z M36.82,80.2c0.11-1.81-0.31-2.36-1.82-2.37
		c-2.94-0.03-5.88-0.03-8.82,0c-1.5,0.02-1.92,0.59-1.81,2.27c0.26,0.03,0.53,0.09,0.79,0.09C29.01,80.2,32.86,80.2,36.82,80.2z
		 M61.61,64.86c0.85-2.28,1.57-4.22,2.3-6.2c-1.62,0-3.06,0-4.61,0C60.06,60.68,60.78,62.61,61.61,64.86z"/>
	<path class="st0" d="M40.73,25.96c-0.07,7.8-6.38,13.95-14.22,13.85c-7.7-0.1-13.85-6.43-13.77-14.18
		c0.08-7.67,6.45-13.87,14.16-13.8C34.6,11.9,40.8,18.23,40.73,25.96z M37.67,25.9c0.06-6.05-4.86-11-10.93-11.02
		c-5.95-0.02-10.91,4.92-10.95,10.89c-0.04,6,4.81,10.92,10.82,10.99C32.72,36.83,37.61,32.02,37.67,25.9z"/>
	<path class="st0" d="M30.21,47.86c-0.38-0.57-1.01-1.12-1.07-1.72c-0.09-0.93,0.6-1.49,1.58-1.42c0.94,0.06,1.5,0.71,1.32,1.54
		c-0.13,0.6-0.79,1.09-1.22,1.62C30.62,47.87,30.42,47.87,30.21,47.86z"/>
	<path class="st0" d="M25.24,22.2c0-1.15-0.01-2.3,0-3.44c0.01-1.01,0.45-1.73,1.53-1.73c1.09,0,1.48,0.75,1.47,1.76
		c-0.01,1.65,0.05,3.31-0.02,4.96c-0.04,0.99,0.16,1.79,0.99,2.4c0.29,0.21,0.53,0.51,0.78,0.78c0.62,0.71,0.8,1.49,0.07,2.2
		c-0.72,0.7-1.5,0.54-2.23-0.06c-1.66-1.39-3.1-2.88-2.61-5.34C25.32,23.22,25.23,22.7,25.24,22.2z"/>
</g>
</svg>
