<?xml version="1.0" encoding="utf-8"?>
<!-- Generator: Adobe Illustrator 24.0.1, SVG Export Plug-In . SVG Version: 6.00 Build 0)  -->
<svg version="1.1" id="Layer_1" xmlns="http://www.w3.org/2000/svg" xmlns:xlink="http://www.w3.org/1999/xlink" x="0px" y="0px"
	 viewBox="0 0 100 100" style="enable-background:new 0 0 100 100;" xml:space="preserve">
<style type="text/css">
	.st0{fill:#FFFFFF;}
</style>
<g>
	<path class="st0" d="M21.62,32.01c-0.94-0.93-2.16-2.13-3.37-3.34c-0.98-0.99-0.99-1.48-0.03-2.45c2.67-2.68,5.34-5.36,8.02-8.02
		c0.94-0.93,1.44-0.93,2.37-0.01c1.21,1.21,2.39,2.45,3.58,3.68c1.78-0.87,3.42-1.75,5.12-2.48c1.36-0.58,2.77-1.04,4.2-1.41
		c0.9-0.23,1.17-0.64,1.12-1.53c-0.07-1.36-0.02-2.73,0-4.09c0.02-1.24,0.4-1.64,1.59-1.64c3.86-0.01,7.72,0,11.58-0.01
		c1.08,0,1.57,0.51,1.57,1.57c0,1.52-0.03,3.04,0.03,4.56c0.01,0.33,0.28,0.83,0.55,0.94c3.25,1.28,6.52,2.5,10.06,3.84
		c0.91-0.92,2.1-2.14,3.31-3.35c0.97-0.96,1.51-0.97,2.46-0.02c2.68,2.66,5.36,5.34,8.02,8.02c0.92,0.92,0.91,1.43-0.01,2.37
		c-1.04,1.06-2.07,2.12-3.15,3.13c-0.45,0.43-0.41,0.75-0.17,1.3c1.24,2.85,2.44,5.71,3.57,8.6c0.26,0.67,0.5,1.02,1.28,0.98
		c1.44-0.06,2.88-0.03,4.33-0.01c1.23,0.02,1.63,0.41,1.63,1.61c0.01,3.82,0.01,7.64,0,11.46c0,1.28-0.38,1.65-1.69,1.67
		c-1.48,0.02-2.96-0.01-4.44,0.04c-0.31,0.01-0.8,0.22-0.89,0.46c-1.29,3.28-2.53,6.58-3.87,10.12c0.94,0.94,2.17,2.13,3.37,3.35
		c0.97,0.98,0.98,1.48,0.01,2.45c-2.66,2.68-5.34,5.36-8.02,8.02c-0.93,0.92-1.43,0.91-2.37-0.01c-1.06-1.04-2.12-2.07-3.13-3.15
		c-0.42-0.44-0.74-0.43-1.3-0.19c-2.88,1.26-5.78,2.48-8.71,3.61c-0.68,0.27-0.88,0.57-0.87,1.24c0.04,1.4,0.01,2.81,0,4.21
		c-0.02,1.38-0.37,1.75-1.72,1.76c-3.78,0.01-7.56,0.01-11.34,0c-1.29,0-1.65-0.37-1.67-1.69c-0.02-1.48,0.03-2.96-0.03-4.44
		c-0.01-0.33-0.29-0.82-0.56-0.93c-3.25-1.28-6.51-2.5-10.03-3.83c-0.92,0.93-2.11,2.15-3.33,3.35c-0.97,0.96-1.5,0.97-2.46,0.02
		c-2.68-2.66-5.36-5.34-8.02-8.02c-0.92-0.93-0.91-1.42,0.01-2.37c1.04-1.06,2.07-2.12,3.15-3.13c0.45-0.43,0.42-0.75,0.18-1.3
		c-1.25-2.88-2.47-5.78-3.61-8.71c-0.26-0.68-0.56-0.89-1.24-0.87c-1.44,0.04-2.88,0.02-4.33,0c-1.24-0.02-1.64-0.4-1.64-1.6
		c-0.01-3.86,0-7.72-0.01-11.58c0-1.09,0.52-1.57,1.57-1.56c1.52,0,3.04,0.02,4.56-0.04c0.33-0.01,0.82-0.29,0.93-0.56
		C19.05,38.78,20.28,35.52,21.62,32.01z M86.75,45.1c-1.64,0-3.16-0.05-4.67,0.02c-1.22,0.06-1.86-0.37-2.11-1.62
		c-0.74-3.67-2.17-7.07-4.24-10.18c-0.65-0.97-0.51-1.69,0.32-2.44c1.18-1.07,2.31-2.2,3.39-3.25c-2.4-2.4-4.68-4.68-7.04-7.04
		c-1.06,1.08-2.2,2.2-3.28,3.37c-0.76,0.83-1.47,0.95-2.45,0.31c-3.08-2.04-6.45-3.43-10.07-4.23c-1.57-0.35-1.71-0.54-1.71-2.12
		c0-1.55,0-3.09,0-4.66c-3.32,0-6.5,0-9.81,0c0,1.63-0.05,3.18,0.02,4.73c0.05,1.17-0.36,1.79-1.56,2.03
		c-3.67,0.74-7.07,2.17-10.19,4.23c-0.94,0.62-1.68,0.59-2.45-0.26c-1.09-1.21-2.23-2.36-3.18-3.34c-2.46,2.41-4.75,4.66-7.1,6.97
		c1.09,1.07,2.2,2.21,3.37,3.3c0.78,0.73,0.91,1.43,0.3,2.35c-2.09,3.15-3.54,6.58-4.29,10.29c-0.23,1.12-0.78,1.59-1.93,1.54
		c-1.59-0.06-3.17-0.02-4.8-0.02c0,3.34,0,6.54,0,9.81c1.66,0,3.21,0.04,4.77-0.01c1.12-0.04,1.72,0.37,1.95,1.51
		c0.75,3.7,2.19,7.14,4.27,10.3c0.6,0.91,0.57,1.62-0.24,2.36c-1.2,1.1-2.36,2.26-3.45,3.3c2.4,2.4,4.67,4.68,7.07,7.09
		c1.04-1.09,2.17-2.22,3.24-3.4c0.76-0.84,1.48-0.94,2.45-0.3c3.12,2.06,6.52,3.49,10.19,4.24c1.16,0.24,1.65,0.81,1.6,2
		c-0.07,1.58-0.02,3.17-0.02,4.76c3.33,0,6.51,0,9.81,0c0-1.59,0-3.11,0-4.62c0-1.62,0.13-1.81,1.67-2.15
		c3.61-0.8,6.98-2.18,10.07-4.23c0.95-0.63,1.68-0.58,2.45,0.26c1.09,1.2,2.24,2.35,3.18,3.33c2.45-2.41,4.74-4.65,7.13-7
		c-1.09-1.06-2.22-2.19-3.4-3.27c-0.79-0.72-0.92-1.42-0.3-2.35c2.09-3.15,3.54-6.58,4.29-10.29c0.23-1.11,0.77-1.59,1.92-1.55
		c1.59,0.06,3.18,0.02,4.84,0.02C86.75,51.6,86.75,48.42,86.75,45.1z"/>
	<path class="st0" d="M26.65,49.96c0.02-12.85,10.55-23.33,23.41-23.32c12.78,0.02,23.3,10.56,23.29,23.32
		C73.33,62.88,62.78,73.4,49.87,73.35C37.1,73.31,26.63,62.76,26.65,49.96z M51.15,42.57c0.02-0.43,0.05-0.81,0.05-1.19
		c0-2.22-0.01-4.44,0-6.66c0-1.51,0.37-1.89,1.83-1.91c3.53-0.06,3.53-0.06,6.07,2.46c0.39,0.39,0.85,0.72,1.14,1.17
		c0.35,0.56,0.75,1.21,0.77,1.83c0.08,2.92,0.07,5.85-0.01,8.77c-0.02,0.62-0.36,1.34-0.78,1.82c-1.05,1.2-2.28,2.24-3.34,3.43
		c-0.39,0.44-0.72,1.12-0.72,1.7c-0.06,4.91-0.03,9.82-0.03,14.73c0,0.36,0.05,0.73,0.08,1.11c8.26-2.27,15.8-11.04,14.52-22.11
		c-1.28-11.16-10.5-18.9-21.8-18.54c-10.17,0.32-19.1,9-19.73,19.17c-0.61,9.9,6.32,20.12,14.58,21.42
		c0.03-0.14,0.09-0.28,0.09-0.42c0.01-5.26,0.02-10.52-0.01-15.78c0-0.37-0.25-0.81-0.52-1.09c-1.18-1.24-2.45-2.4-3.6-3.67
		c-0.4-0.44-0.73-1.13-0.74-1.71c-0.07-2.96-0.04-5.92-0.01-8.88c0-0.41,0.03-0.95,0.27-1.21c2.12-2.25,3.93-5.03,7.79-4.22
		c1.3,0.27,1.74,0.45,1.75,1.78c0.02,1.6,0,3.2,0,4.79c0,1.07,0,2.15,0,3.23C49.68,42.57,50.37,42.57,51.15,42.57z M53.76,35.39
		c-0.02,0.38-0.05,0.76-0.05,1.14c0,2.22,0,4.44,0,6.66c0,1.55-0.36,1.9-1.95,1.9c-1.25,0-2.49,0.01-3.74,0
		c-1.32-0.01-1.72-0.42-1.73-1.77c-0.01-2.26,0-4.52,0-6.78c0-0.41,0-0.82,0-1.12c-1.4-0.43-2.3,0.03-3.05,0.97
		c-0.31,0.39-0.68,0.76-1.07,1.07c-0.63,0.51-0.82,1.13-0.8,1.94c0.05,2.26-0.01,4.52,0.05,6.78c0.01,0.48,0.25,1.05,0.58,1.41
		c1.1,1.21,2.36,2.28,3.42,3.52c0.46,0.53,0.84,1.34,0.85,2.02c0.07,5.34,0.03,10.68,0.03,16.02c0,0.45,0,0.91,0,1.49
		c2.54,0,4.92,0,7.4,0c0-0.63,0-1.06,0-1.48c0-5.34,0.01-10.68-0.01-16.02c0-0.84,0.23-1.48,0.85-2.06
		c1.19-1.12,2.36-2.28,3.46-3.48c0.33-0.36,0.57-0.93,0.59-1.41c0.07-1.71-0.14-3.45,0.06-5.14c0.24-2.07-0.49-3.52-2.02-4.86
		C55.74,35.41,54.94,35.08,53.76,35.39z"/>
	<path class="st0" d="M50.04,78.19c0-0.81,0-1.54,0-2.19C65.67,74.35,74.27,65.78,76,50.08c0.59,0,1.35,0,2.1,0
		C78.73,63.84,66.66,78.28,50.04,78.19z"/>
	<path class="st0" d="M49.94,21.86c0,0.81,0,1.54,0,2.35c-7.1,0.16-13.2,2.62-18.19,7.63c-4.95,4.97-7.39,11.05-7.55,18.11
		c-0.84,0-1.6,0-2.35,0C21.47,34.84,34.62,21.51,49.94,21.86z"/>
</g>
</svg>
