<?xml version="1.0" encoding="utf-8"?>
<!-- Generator: Adobe Illustrator 24.0.1, SVG Export Plug-In . SVG Version: 6.00 Build 0)  -->
<svg version="1.1" id="Layer_1" xmlns="http://www.w3.org/2000/svg" xmlns:xlink="http://www.w3.org/1999/xlink" x="0px" y="0px"
	 viewBox="0 0 100 100" style="enable-background:new 0 0 100 100;" xml:space="preserve">
<style type="text/css">
	.st0{fill:#FFFFFF;}
</style>
<g>
	<path class="st0" d="M58.37,35.42c2.65-0.85,5.12-0.87,7.63-0.29c1.1,0.25,1.74,0.83,1.98,1.95c0.86,4.09,0.22,7.85-2.32,11.22
		c-0.22,0.29-0.44,0.57-0.65,0.86c-0.04,0.06-0.06,0.15-0.08,0.22c0.04,0.05,0.08,0.14,0.13,0.16c2.44,0.56,2.76,0.35,3.2,3.81
		c1.08,8.58-6.13,15.91-14.73,15.04c-0.31-0.03-0.62-0.05-1.06-0.08c-0.02,0.48-0.06,0.9-0.06,1.32c-0.01,2.64,0,5.27,0,7.91
		c0,0.36-0.01,0.72-0.04,1.08c-0.09,0.94-0.63,1.48-1.56,1.46c-1.03-0.02-1.49-0.69-1.5-1.66c-0.02-2.88-0.02-5.75-0.02-8.63
		c0-0.47,0-0.94,0-1.49c-0.9,0.06-1.64,0.13-2.39,0.16c-8.71,0.28-15.6-8.71-13.11-17.07c0.26-0.87,0.79-1.35,1.63-1.56
		c0.45-0.11,0.9-0.22,1.09-0.26c-0.92-1.99-1.99-3.9-2.7-5.93c-0.77-2.18-0.62-4.48-0.06-6.73c0.24-0.98,0.82-1.51,1.76-1.72
		c2.21-0.5,4.41-0.7,6.63-0.06c0.33,0.1,0.68,0.15,0.78,0.17c0.17-2.29,0.1-4.58,0.56-6.76c0.79-3.72,3.15-6.41,6.47-8.19
		c0.53-0.29,1.52-0.18,2.1,0.13c4.64,2.49,7.41,8.26,6.57,13.47C58.52,34.35,58.46,34.78,58.37,35.42z M52.71,65.15
		c1.33,0,2.65,0.16,3.92-0.03c5.1-0.77,8.96-5.68,8.56-10.75c-0.13-1.64-0.26-1.77-1.89-1.86C56.62,52.13,51.37,58.27,52.71,65.15z
		 M36.8,38.18c-0.94,3.28,0.02,6.76,2.75,9.48c2.48,2.47,5.52,3.39,8.97,2.82c0.23-0.04,0.53-0.44,0.58-0.71
		C50.4,42.85,43.7,36.55,36.8,38.18z M65.19,40.5c0-0.28-0.01-0.56,0-0.84c0.05-1.21-0.51-1.71-1.74-1.8
		C57.29,37.41,51.41,43,52.57,49.91c0.04,0.25,0.5,0.56,0.8,0.61C59.5,51.47,65.16,46.67,65.19,40.5z M48.92,65.03
		c1.75-6.4-4.07-13.52-11.52-12.38c-0.31,0.05-0.73,0.55-0.79,0.9C35.41,60.35,42.02,66.76,48.92,65.03z M46.08,31.9
		c0.02,3.33,1.32,5.97,3.63,8.04c0.87,0.78,1.45,0.75,2.3,0.03c4.94-4.26,4.69-12.2-0.52-16.1c-0.51-0.38-0.83-0.38-1.34,0
		C47.36,25.94,46.22,28.79,46.08,31.9z"/>
	<path class="st0" d="M50.78,9.56c2.61,0.34,5.43,0.63,8.22,1.08c1.42,0.23,1.97,1.71,0.98,2.53c-0.46,0.38-1.34,0.5-1.97,0.4
		c-3.2-0.53-6.4-0.72-9.66-0.53c-6.71,0.41-12.83,2.51-18.34,6.28c-7.05,4.82-12.08,11.31-14.55,19.5
		C12.07,50.08,13.53,60.77,20,70.68c0.2,0.3,0.44,0.57,0.61,0.89c0.45,0.86,0.96,1.09,1.99,0.75c2.54-0.84,5.36,0.45,6.71,2.88
		c1.3,2.32,0.83,5.38-1.1,7.15c-2.13,1.96-5.11,2.2-7.5,0.6c-2.21-1.48-3.26-4.55-2.2-6.97c0.42-0.95,0.3-1.54-0.27-2.34
		c-6.36-8.98-8.83-18.93-7.22-29.83c2.45-16.62,15.8-30.38,32.28-33.32C45.7,10.06,48.13,9.88,50.78,9.56z M24.1,80.83
		c1.62,0,2.77-1.17,2.77-2.8c0-1.57-1.25-2.81-2.8-2.8c-1.57,0.01-2.77,1.24-2.76,2.83C21.32,79.71,22.46,80.83,24.1,80.83z"/>
	<path class="st0" d="M50.84,90.44c-2.78-0.27-4.73-0.43-6.67-0.65c-1.23-0.14-1.87-0.87-1.73-1.86c0.14-0.95,0.86-1.45,2.07-1.27
		c4.3,0.64,8.58,0.65,12.88-0.11c5.24-0.92,10.06-2.87,14.4-5.9C79.7,75.11,84.94,67.66,87,58.18c2.38-10.93,0.2-21-6.27-30.13
		c-0.37-0.52-0.69-0.59-1.29-0.4c-2.74,0.89-5.5-0.13-6.98-2.51c-1.45-2.34-1.07-5.34,0.93-7.38c1.9-1.93,5.05-2.21,7.5-0.66
		c2.2,1.39,3.31,4.52,2.23,6.96c-0.48,1.09-0.21,1.73,0.38,2.55c6.34,8.96,8.73,18.91,7.1,29.75C88.1,73.03,74.85,86.62,58.23,89.6
		C55.54,90.09,52.77,90.23,50.84,90.44z M80.33,22.04c-0.01-1.62-1.17-2.78-2.78-2.78c-1.58,0-2.78,1.21-2.78,2.8
		c0,1.54,1.26,2.81,2.79,2.8C79.11,24.85,80.34,23.6,80.33,22.04z"/>
	<path class="st0" d="M37.99,85.93c0.03,0.87-0.67,1.59-1.56,1.6c-0.85,0.01-1.67-0.74-1.6-1.57c0.08-0.89,0.6-1.47,1.51-1.56
		C37.18,84.32,37.96,85.08,37.99,85.93z"/>
	<path class="st0" d="M65.34,15.71c-0.85,0.03-1.63-0.69-1.6-1.56c0.02-0.92,0.52-1.47,1.46-1.55c0.91-0.07,1.64,0.58,1.68,1.46
		C66.92,14.9,66.2,15.68,65.34,15.71z"/>
</g>
</svg>
