<?xml version="1.0" encoding="utf-8"?>
<!-- Generator: Adobe Illustrator 24.0.1, SVG Export Plug-In . SVG Version: 6.00 Build 0)  -->
<svg version="1.1" id="Layer_1" xmlns="http://www.w3.org/2000/svg" xmlns:xlink="http://www.w3.org/1999/xlink" x="0px" y="0px"
	 viewBox="0 0 100 100" style="enable-background:new 0 0 100 100;" xml:space="preserve">
<style type="text/css">
	.st0{fill:#FFFFFF;}
</style>
<g>
	<path class="st0" d="M46.36,46.27c1.35-0.44,2.57-0.82,3.76-1.25c0.15-0.05,0.27-0.38,0.29-0.58c0.07-0.74,0.41-1.23,1.1-1.55
		c3.82-1.73,7.63-1.73,11.44-0.01c0.64,0.29,1.07,0.74,1.04,1.47c-0.02,0.52,0.25,0.66,0.68,0.78c2.63,0.74,5.11,1.85,7.41,3.34
		c0.24,0.15,0.63,0.19,0.92,0.13c0.97-0.19,1.79-0.02,2.56,0.63c6.82,5.81,10.33,13.18,10.44,22.15c0.02,1.53-0.03,3.06,0.03,4.59
		c0.01,0.3,0.29,0.72,0.55,0.85c1.93,0.97,2.89,2.84,2.48,4.93c-0.42,2.12-1.94,3.48-4.17,3.55c-3.65,0.12-7.03,1.13-10.24,2.84
		c-3.1,1.65-6.45,2.43-9.97,2.44c-4.9,0.02-9.79,0-14.69,0.01c-3.68,0-7.15-0.84-10.4-2.55c-3.05-1.6-6.25-2.62-9.73-2.65
		c-4.24-0.03-5.37-4.39-3.91-6.7c0.42-0.67,1.06-1.29,1.75-1.67c0.65-0.36,0.81-0.73,0.81-1.41c0-3.33-0.18-6.66,0.52-9.96
		c1.01-4.79,3.06-9.07,6.25-12.79c0.45-0.53,0.62-1.05,0.62-1.73c0.03-6.03,0.09-12.05,0.14-18.07c0-0.43,0.15-0.88-0.52-1.08
		c-5.38-1.61-7.57-5.52-6.79-11.08c0.65-4.62,2.74-8.52,6.31-11.57c0.6-0.52,1.24-1.25,2.17-0.79c0.9,0.44,0.68,1.35,0.68,2.12
		c0.01,2.81,0,5.63,0,8.44c0,1.18,0.2,1.38,1.39,1.39c1.38,0.01,2.75,0.02,4.13,0.01c1,0,1.25-0.25,1.26-1.25
		c0.01-2.97-0.03-5.93,0.04-8.9c0.01-0.6,0.27-1.38,0.7-1.74c0.59-0.49,1.27,0.02,1.8,0.45c3.49,2.84,5.61,6.53,6.41,10.91
		c0.3,1.65,0.36,3.43,0.11,5.08c-0.54,3.6-2.91,5.74-6.29,6.8c-0.74,0.23-0.98,0.53-0.98,1.31c0,3.98-0.07,7.95-0.11,11.93
		C46.36,45.45,46.36,45.78,46.36,46.27z M57.2,78.85c-8.9,0-17.8,0-26.7,0c-0.31,0-0.61-0.02-0.92,0.01
		c-1.15,0.13-1.9,1.05-1.83,2.23c0.06,1.11,0.81,1.85,1.99,1.83c3.71-0.07,7.12,0.98,10.36,2.68c3.34,1.76,6.87,2.65,10.65,2.6
		c4.56-0.05,9.11-0.01,13.67-0.02c3.01-0.01,5.92-0.56,8.59-1.95c3.77-1.95,7.69-3.28,11.98-3.36c0.87-0.02,1.49-0.55,1.73-1.4
		c0.23-0.85,0-1.65-0.76-2.08c-0.55-0.32-1.25-0.52-1.88-0.53C75.12,78.84,66.16,78.85,57.2,78.85z M83.51,76.4
		c0.49-6.73-0.17-13.17-3.91-18.98c-1.5-2.33-3.24-4.42-5.61-6.28c0,0.6,0,0.94,0,1.27c0,4.01,0.01,8.01,0.01,12.02
		c0,0.27,0,0.55-0.03,0.82c-0.09,0.66-0.47,1.08-1.14,1.09c-0.71,0.01-1.12-0.42-1.23-1.12c-0.04-0.27-0.03-0.55-0.03-0.82
		c0-3.45-0.01-6.91-0.01-10.36c0-3.28,0.02-3.32-2.96-4.79c-1.43-0.71-2.96-1.24-4.53-1.89c0,9.84,0,19.44,0,29.05
		c2.52,0,4.96,0,7.5,0c0-0.38,0-0.7,0-1.03c0-1.22-0.03-2.45,0-3.67c0.02-0.77,0.38-1.31,1.22-1.31c0.85-0.01,1.16,0.56,1.21,1.32
		c0.02,0.37,0.01,0.73,0.01,1.1c0,1.18,0,2.37,0,3.6C77.23,76.4,80.34,76.4,83.51,76.4z M38.31,49.49c0.06,0.04,0.12,0.09,0.19,0.13
		c0.91-0.97,1.94-1.33,3.25-0.93c0.7,0.22,2.19-1.23,2.2-1.98c0.05-4.86,0.1-9.72,0.14-14.58c0.02-1.87,0.02-1.87,1.85-2.32
		c3.53-0.86,5.45-2.86,5.6-6.31c0.18-4.19-1.41-7.81-4.14-10.95c-0.04-0.05-0.16-0.02-0.31-0.04c0,2.36,0.01,4.67,0,6.99
		c-0.01,2-1.41,3.39-3.42,3.41c-1.59,0.01-3.18,0-4.77-0.03c-2.07-0.03-3.41-1.4-3.41-3.49c0-2.11,0.01-4.22,0.01-6.33
		c0-0.21-0.05-0.43-0.1-0.86c-2.91,3.51-4.63,7.21-4.31,11.65c0.16,2.25,1.22,3.96,3.22,5c0.83,0.43,1.75,0.72,2.66,0.97
		c1.26,0.35,1.5,0.58,1.49,1.89c-0.04,5.59-0.09,11.19-0.13,16.78C38.31,48.84,38.31,49.17,38.31,49.49z M61.53,76.41
		c0.03-0.14,0.04-0.17,0.04-0.2c0.01-10.24,0.02-20.48-0.01-30.72c0-0.27-0.35-0.69-0.62-0.8c-2.34-0.92-4.7-0.9-7.09-0.15
		c-0.68,0.21-0.95,0.51-0.95,1.28c0.03,9.87,0.03,19.75,0.03,29.62c0,0.32,0.03,0.64,0.04,0.97C55.88,76.41,58.68,76.41,61.53,76.41
		z M50.44,47.47c-2.7,0.76-5.06,1.86-7.21,3.4c-0.23,0.16-0.32,0.63-0.32,0.96c-0.01,7.92-0.01,15.84,0,23.76
		c0,0.27,0.04,0.53,0.06,0.8c2.53,0,4.99,0,7.48,0C50.44,66.76,50.44,57.21,50.44,47.47z M40.41,76.43c0-8.41,0-16.72,0-25.25
		c-3.43,2.84-5.82,6.18-7.52,10.07c-2.12,4.88-2.14,10-1.93,15.18C34.15,76.43,37.24,76.43,40.41,76.43z"/>
	<path class="st0" d="M22.31,15.19c-3.18,0-6.26,0-9.5,0c0,1.16,0.09,2.31-0.02,3.45c-0.19,2.01,0.23,3.81,1.49,5.4
		c1.35,1.72,1.67,3.66,1.63,5.83c-0.12,5.53-0.03,11.07-0.03,16.61c0,0.36,0,0.72,0,1.15c1.18,0,2.26,0,3.46,0c0-1.92,0-3.83,0-5.75
		c0-1.02,0.88-1.71,1.67-1.22c0.37,0.24,0.69,0.86,0.71,1.32c0.08,1.86,0.03,3.72,0.03,5.64c0.44,0.05,0.83,0.09,1.21,0.15
		c1.74,0.27,3.14,1.69,3.37,3.41c0.25,1.84-0.66,3.59-2.35,4.24c-0.7,0.27-0.8,0.64-0.8,1.29c0,7.43-0.02,14.86-0.05,22.3
		c0,0.76-0.02,1.54-0.2,2.27c-0.64,2.59-2.97,4.17-5.74,3.97c-2.85-0.21-4.91-2.07-5.05-4.86c-0.14-2.81-0.06-5.63-0.06-8.44
		c0-5.11,0.02-10.21,0.04-15.32c0-0.53-0.05-0.87-0.67-1.08c-1.68-0.57-2.69-2.27-2.51-4.04c0.21-2.07,1.43-3.46,3.29-3.76
		c0.36-0.06,0.73-0.07,1.19-0.12c0.02-0.33,0.04-0.65,0.04-0.98c0-6.15,0-12.29-0.04-18.44c0-0.52-0.12-1.14-0.43-1.54
		c-2.27-2.91-2.93-6.18-2.63-9.8c0.19-2.25,0.03-4.52,0.04-6.79c0.01-1.29,0.42-1.69,1.71-1.7c3.67-0.01,7.34-0.01,11.01-0.01
		c1.18,0,1.61,0.41,1.62,1.59c0.01,3.82,0.02,7.65-0.01,11.47c0,0.49-0.14,1.07-0.42,1.45c-2.16,2.86-3.05,6.03-2.6,9.6
		c0.11,0.87,0.04,1.77,0.02,2.66c-0.02,0.82-0.51,1.29-1.25,1.26c-0.76-0.03-1.16-0.48-1.16-1.33c0-2.51-0.02-5.02,0.03-7.52
		c0.01-0.52,0.23-1.05,0.4-1.56c0.08-0.26,0.26-0.48,0.4-0.72c0.72-1.28,1.82-2.48,2.07-3.84C22.58,19.45,22.31,17.35,22.31,15.19z
		 M14.59,55.78c-0.02,0.41-0.05,0.68-0.05,0.95c-0.02,7.51-0.04,15.03-0.05,22.54c0,0.4,0.01,0.8,0.09,1.18
		c0.34,1.77,2.2,2.92,3.87,2.42c1.41-0.42,2.23-1.64,2.25-3.4c0.03-4.25,0.04-8.49,0.06-12.74c0.01-3.36,0.02-6.72,0.01-10.08
		c0-0.35,0.19-0.88-0.47-0.88C18.41,55.77,16.52,55.78,14.59,55.78z M17.62,53.39c0-0.01,0-0.02,0-0.03c1.53,0,3.06,0.01,4.58,0
		c1.06-0.01,1.62-0.55,1.65-1.54c0.03-1.03-0.54-1.65-1.62-1.66c-3.06-0.03-6.11-0.04-9.17-0.03c-1.12,0-1.76,0.65-1.75,1.67
		c0.02,1.02,0.67,1.59,1.81,1.6C14.63,53.39,16.12,53.39,17.62,53.39z M22.29,10.86c-3.21,0-6.3,0-9.41,0
		c-0.03,0.26-0.06,0.44-0.07,0.62c-0.04,1.22-0.04,1.21,1.16,1.22c2.44,0.01,4.88,0.03,7.32,0.04c0.32,0,0.64,0,1,0
		C22.29,12.02,22.29,11.45,22.29,10.86z"/>
	<path class="st0" d="M86.77,37.65c-1.14-0.38-2.05-0.74-2.99-0.97c-0.37-0.09-0.86,0-1.21,0.18c-0.79,0.4-1.55,0.86-2.27,1.37
		c-0.31,0.22-0.59,0.58-0.7,0.94c-0.2,0.63-0.27,1.31-0.4,1.97c-0.29,1.51-1.2,2.29-2.72,2.32c-1.22,0.02-2.45,0.02-3.67,0
		c-1.38-0.03-2.46-0.8-2.55-2.14c-0.13-1.9-0.94-3.04-2.71-3.82c-0.99-0.43-1.77-0.79-2.77-0.26c-0.43,0.23-0.91,0.35-1.38,0.48
		c-1.17,0.33-2.24-0.02-2.88-1.04c-0.73-1.16-1.42-2.36-2.06-3.57c-0.59-1.13-0.43-2.44,0.62-3.14c1.64-1.09,2.14-2.43,1.97-4.36
		c-0.1-1.11-0.29-1.9-1.21-2.51c-0.38-0.25-0.71-0.58-1.04-0.9c-0.86-0.84-1.1-1.95-0.54-3.02c0.63-1.22,1.31-2.42,2.05-3.57
		c0.73-1.14,1.88-1.61,3.1-1.04c1.64,0.78,2.96,0.71,4.5-0.38c1.01-0.71,1.73-1.3,1.76-2.56c0.01-0.42,0.14-0.84,0.24-1.26
		c0.3-1.18,1.24-1.96,2.44-1.98c1.31-0.03,2.63-0.02,3.94,0c1.24,0.02,2.39,0.81,2.45,2.04c0.11,2.04,1.03,3.19,2.87,4.01
		c0.95,0.42,1.66,0.67,2.59,0.18c0.4-0.21,0.85-0.33,1.29-0.46c1.31-0.38,2.37-0.02,3.09,1.13c0.7,1.11,1.35,2.25,1.96,3.42
		c0.61,1.18,0.43,2.46-0.64,3.21c-1.5,1.06-2.16,2.26-1.94,4.18c0.13,1.13,0.21,2.04,1.24,2.67c0.36,0.22,0.66,0.54,0.97,0.84
		c0.89,0.83,1.17,1.93,0.62,2.99c-0.67,1.3-1.36,2.61-2.21,3.79C88.18,36.97,87.36,37.26,86.77,37.65z M62.7,35.41
		c1.1-0.38,2.06-0.79,3.07-1.02c0.5-0.12,1.15-0.04,1.62,0.19c1.23,0.58,2.44,1.25,3.59,1.98c0.44,0.28,0.79,0.78,1.03,1.26
		c0.2,0.39,0.18,0.89,0.26,1.34c0.35,1.89,0.35,1.89,2.31,1.91c0.52,0,1.05,0.07,1.55-0.02c0.27-0.05,0.63-0.34,0.69-0.58
		c0.24-0.88,0.39-1.79,0.54-2.69c0.12-0.69,0.46-1.11,1.1-1.45c1.16-0.6,2.28-1.28,3.36-2.01c0.59-0.41,1.12-0.53,1.78-0.26
		c0.76,0.31,1.56,0.52,2.33,0.83c0.49,0.2,0.78,0.13,1.04-0.36c0.44-0.84,0.91-1.66,1.42-2.46c0.28-0.44,0.16-0.7-0.2-1
		c-0.74-0.6-1.5-1.17-2.14-1.86c-0.33-0.36-0.53-0.94-0.56-1.43c-0.08-1.33,0-2.67-0.08-4.01c-0.04-0.7,0.08-1.24,0.65-1.69
		c0.67-0.53,1.29-1.13,1.96-1.66c0.39-0.31,0.43-0.59,0.17-1.01c-0.5-0.81-0.92-1.66-1.44-2.45c-0.14-0.21-0.59-0.41-0.82-0.35
		c-0.88,0.24-1.75,0.56-2.59,0.9c-0.7,0.28-1.23,0.15-1.86-0.28c-1.03-0.69-2.13-1.31-3.26-1.82c-0.73-0.33-1.13-0.75-1.24-1.53
		c-0.12-0.84-0.27-1.69-0.5-2.51c-0.07-0.25-0.44-0.55-0.7-0.57c-0.97-0.07-1.96-0.06-2.93,0c-0.23,0.01-0.57,0.31-0.63,0.54
		c-0.24,0.91-0.4,1.85-0.56,2.78c-0.12,0.69-0.48,1.1-1.13,1.43c-1.13,0.58-2.23,1.25-3.27,1.98c-0.59,0.41-1.11,0.57-1.78,0.32
		c-0.83-0.31-1.65-0.64-2.51-0.87c-0.24-0.07-0.7,0.11-0.84,0.32c-0.54,0.81-1.04,1.66-1.46,2.54c-0.11,0.23-0.03,0.72,0.15,0.9
		c0.69,0.69,1.51,1.25,2.18,1.96c0.31,0.33,0.51,0.89,0.53,1.36c0.08,1.36,0.01,2.74,0.08,4.1c0.04,0.71-0.12,1.24-0.69,1.68
		c-0.65,0.51-1.24,1.09-1.89,1.6c-0.42,0.33-0.45,0.64-0.18,1.09c0.5,0.8,0.94,1.64,1.43,2.46C62.39,35.15,62.58,35.28,62.7,35.41z"
		/>
	<path class="st0" d="M67.57,25.95c0-3.9,3.09-6.98,6.98-6.97c3.88,0.01,6.91,3.04,6.91,6.92c0,3.86-3.16,7.04-6.97,7.02
		C70.67,32.9,67.57,29.78,67.57,25.95z M79.04,25.94c0.01-2.56-1.95-4.55-4.51-4.55c-2.54,0-4.54,1.99-4.55,4.53
		c-0.01,2.5,2.04,4.59,4.52,4.59C76.98,30.51,79.03,28.45,79.04,25.94z"/>
</g>
</svg>
