<?xml version="1.0" encoding="utf-8"?>
<!-- Generator: Adobe Illustrator 24.0.1, SVG Export Plug-In . SVG Version: 6.00 Build 0)  -->
<svg version="1.1" id="Layer_1" xmlns="http://www.w3.org/2000/svg" xmlns:xlink="http://www.w3.org/1999/xlink" x="0px" y="0px"
	 viewBox="0 0 100 100" style="enable-background:new 0 0 100 100;" xml:space="preserve">
<style type="text/css">
	.st0{fill:#FFFFFF;}
</style>
<g>
	<path class="st0" d="M18.98,52.31c0.2-8.94,3.25-16.62,9.38-22.99c6.11-6.34,13.66-9.64,22.48-10.15c0-1.27,0-2.49,0-3.8
		c-0.81,0-1.58,0-2.42,0c0-0.88,0-1.66,0-2.52c2.5,0,4.98,0,7.54,0c0,0.8,0,1.59,0,2.48c-0.81,0-1.58,0-2.42,0c0,1.31,0,2.52,0,3.84
		c8.77,0.51,16.36,3.8,22.48,10.18c6.09,6.35,9.16,14,9.35,22.96c1.04,0,2.06,0,3.08,0c1.66,0.01,2.12,0.51,1.94,2.12
		c-0.45,4.13-3.43,7.27-7.53,7.95c-0.25,0.04-0.49,0.12-0.72,0.17c0.22,0.76,0.54,1.46,0.62,2.18c0.19,1.76-0.41,3.28-1.78,4.42
		c-5.16,4.27-10.34,8.51-15.5,12.78c-1.92,1.59-4.09,2.28-6.57,2.27c-9.5-0.03-18.99-0.01-28.49-0.01c-0.38,0-0.76,0-1.25,0
		c0,1.31,0.01,2.5,0,3.7c-0.01,0.86-0.47,1.39-1.3,1.39c-4.61,0.03-9.22,0.01-13.89,0.01c0-0.86,0-1.65,0-2.54
		c4.21,0,8.39,0,12.61,0c0-6.39,0-12.69,0-19.09c-4.21,0-8.39,0-12.61,0c0-0.9,0-1.69,0-2.6c0.38,0,0.72,0,1.07,0
		c3.74,0,7.48-0.01,11.22,0.01c0.87,0,1.89,0.42,2.56,0.08c1.12-0.57,2.02-1.58,3.27-2.62c-0.62,0-0.95,0-1.28,0
		c-3.15-0.05-6.32,0.1-9.45-0.21c-4.04-0.4-7.24-4.15-7.42-8.2c-0.06-1.29,0.39-1.78,1.7-1.8C16.74,52.3,17.83,52.31,18.98,52.31z
		 M21.57,52.18c20.44,0,40.78,0,61.23,0c-0.44-10.86-4.82-19.61-13.98-25.42c-10.99-6.97-22.39-6.95-33.35,0.05
		C26.36,32.62,21.98,41.35,21.57,52.18z M29.29,81.56c0.26,0.05,0.35,0.08,0.44,0.08c9.92,0,19.83,0.01,29.75,0
		c1.64,0,3.11-0.58,4.38-1.65c1.24-1.05,2.51-2.07,3.76-3.11c3.88-3.21,7.77-6.42,11.65-9.63c1.53-1.27,1.24-3.5-0.55-4.18
		c-0.97-0.37-1.83-0.06-2.64,0.53c-4.48,3.23-8.97,6.46-13.49,9.62c-0.62,0.43-1.47,0.72-2.22,0.73c-4.65,0.07-9.3,0.03-13.95,0.03
		c-0.36,0-0.72,0-1.07-0.05c-1.54-0.24-2.64-1.05-3.13-2.56c-0.5-1.55-0.05-3.05,1.11-4.06c0.84-0.73,1.81-0.95,2.89-0.95
		c2.47,0.01,4.94,0.01,7.41,0c1.24-0.01,2.01-0.48,2.25-1.32c0.39-1.38-0.49-2.47-2.03-2.47c-5.4-0.01-10.79,0.01-16.19-0.02
		c-1.11-0.01-2.04,0.36-2.86,1.04c-1.63,1.35-3.27,2.68-4.84,4.09c-0.35,0.31-0.62,0.91-0.63,1.38c-0.05,3.87-0.03,7.74-0.03,11.61
		C29.29,80.94,29.29,81.23,29.29,81.56z M87.64,54.93c-23.68,0-47.29,0-70.92,0c0.01,0.17,0,0.27,0.02,0.36
		c0.68,2.79,3.27,4.68,6.52,4.68c5.17,0.01,10.34-0.04,15.51-0.04c13.82,0.01,27.63,0.03,41.45,0.04c0.42,0,0.85,0.01,1.27-0.01
		C84.67,59.81,87.19,57.77,87.64,54.93z M58.31,62.59c0.08,0.8,0.28,1.51,0.21,2.2c-0.26,2.53-2.08,4.07-4.81,4.11
		c-2.41,0.03-4.81,0-7.22,0.01c-0.36,0-0.8-0.07-1.04,0.11c-0.37,0.28-0.82,0.75-0.83,1.14c0,0.39,0.45,0.86,0.82,1.15
		c0.24,0.18,0.69,0.12,1.04,0.12c4.49,0.01,8.97,0.02,13.46-0.02c0.48,0,1.03-0.19,1.42-0.46c3.67-2.57,7.32-5.19,10.97-7.79
		c0.2-0.14,0.38-0.3,0.72-0.57C68,62.59,63.15,62.59,58.31,62.59z"/>
	<path class="st0" d="M20.28,76.57c2.17-0.01,3.83,1.65,3.83,3.8c0,2.13-1.71,3.83-3.84,3.81c-2.07-0.02-3.78-1.72-3.8-3.78
		C16.44,78.31,18.16,76.58,20.28,76.57z M20.46,79.12c-0.85-0.02-1.45,0.55-1.41,1.26c0.04,0.76,0.5,1.18,1.23,1.25
		c0.69,0.06,1.31-0.57,1.28-1.28C21.52,79.59,21.08,79.19,20.46,79.12z"/>
	<path class="st0" d="M52.14,24.27c0,0.88,0,1.65,0,2.53c-6.64,0.13-12.43,2.42-17.41,6.93c-0.56-0.62-1.1-1.2-1.7-1.87
		C38.44,26.93,44.74,24.39,52.14,24.27z"/>
	<path class="st0" d="M30.84,38.28c-0.7-0.46-1.35-0.89-2.12-1.39c0.8-1.05,1.58-2.07,2.44-3.2c0.68,0.6,1.29,1.14,1.93,1.7
		C32.31,36.39,31.58,37.32,30.84,38.28z"/>
</g>
</svg>
