<?xml version="1.0" encoding="utf-8"?>
<!-- Generator: Adobe Illustrator 24.0.1, SVG Export Plug-In . SVG Version: 6.00 Build 0)  -->
<svg version="1.1" id="Layer_1" xmlns="http://www.w3.org/2000/svg" xmlns:xlink="http://www.w3.org/1999/xlink" x="0px" y="0px"
	 viewBox="0 0 100 100" style="enable-background:new 0 0 100 100;" xml:space="preserve">
<style type="text/css">
	.st0{fill:#FFFFFF;}
</style>
<g>
	<path class="st0" d="M49.74,6.45c23.92-0.01,43.57,19.6,43.59,43.51c0.01,23.93-19.59,43.57-43.51,43.59
		C25.9,93.56,6.24,73.93,6.23,50.04C6.22,26.1,25.82,6.46,49.74,6.45z M83.13,49.87c-0.17-18.35-15.28-33.2-33.62-33.03
		C31.3,17.01,16.48,32,16.61,50.13c0.13,18.37,15.11,33.17,33.42,33.03C68.27,83.02,83.3,67.91,83.13,49.87z"/>
	<path class="st0" d="M51.37,32.01c6.2,0.03,13.73,0.94,21.15,2.75c0.87,0.21,1.4,0.64,1.84,1.42c2.67,4.76,3.83,9.86,3.66,15.3
		c-0.03,1.02-0.42,1.41-1.39,1.59c-10.15,1.92-17.24,9.12-18.95,19.24c-0.2,1.18-0.2,2.41-0.21,3.62c-0.01,0.76-0.22,1.14-1.03,1.34
		c-4.32,1.04-8.63,1.03-12.97,0.08c-1.04-0.23-1.37-0.65-1.39-1.72c-0.19-10.15-5.99-18.32-15.36-21.66
		c-1.25-0.45-2.58-0.71-3.89-0.97c-0.69-0.14-1.01-0.38-1.06-1.16c-0.34-5.73,0.91-11.07,3.86-15.99c0.28-0.47,0.94-0.87,1.49-1.01
		C34.61,32.92,42.22,32.02,51.37,32.01z M49.79,57.63c4.24-0.01,7.65-3.45,7.62-7.68c-0.03-4.23-3.49-7.64-7.71-7.59
		c-4.19,0.05-7.54,3.42-7.56,7.61C42.13,54.2,45.57,57.64,49.79,57.63z M37.03,44.93c0.02-1.37-1.16-2.55-2.55-2.56
		c-1.35,0-2.48,1.07-2.55,2.42c-0.07,1.38,1.07,2.58,2.48,2.61C35.81,47.44,37,46.31,37.03,44.93z M67.63,44.93
		c0.03-1.38-1.14-2.56-2.54-2.56c-1.34,0-2.49,1.08-2.56,2.41c-0.07,1.37,1.08,2.58,2.48,2.62C66.43,47.44,67.61,46.33,67.63,44.93z
		"/>
	<path class="st0" d="M49.81,47.44c1.37,0.02,2.55,1.24,2.53,2.59c-0.03,1.35-1.26,2.55-2.6,2.53c-1.37-0.02-2.55-1.24-2.53-2.6
		C47.24,48.62,48.47,47.41,49.81,47.44z"/>
</g>
</svg>
