<?xml version="1.0" encoding="utf-8"?>
<!-- Generator: Adobe Illustrator 24.0.1, SVG Export Plug-In . SVG Version: 6.00 Build 0)  -->
<svg version="1.1" id="Layer_1" xmlns="http://www.w3.org/2000/svg" xmlns:xlink="http://www.w3.org/1999/xlink" x="0px" y="0px"
	 viewBox="0 0 100 100" style="enable-background:new 0 0 100 100;" xml:space="preserve">
<style type="text/css">
	.st0{fill:#FFFFFF;}
</style>
<g>
	<path class="st0" d="M66.5,44.9c-0.04-1.76,0.37-3.37-0.82-4.8c-0.36-0.43-0.37-1.23-0.38-1.85c-0.04-3.03,0.01-6.07-0.05-9.1
		c-0.01-0.46-0.37-0.98-0.7-1.35c-0.45-0.51-1.17-0.81-1.52-1.37c-0.74-1.17-1.72-1.32-2.98-1.23c-6,0.45-12.02,0.82-18.02,1.25
		c-0.36,0.03-0.83,0.3-1.03,0.6c-3.2,4.81-7.92,6.27-13.28,4.07c-0.14-0.06-0.29-0.1-0.61-0.21c-1.25,8.96-2.48,17.86-3.74,26.94
		c2.6-0.42,5.02-0.25,7.44,1.1c0.34-2.43,0.67-4.72,0.99-7.01c0.79-5.64,1.55-11.28,2.38-16.91c0.08-0.53,0.43-1.2,0.86-1.45
		c0.87-0.51,1.79,0.3,1.65,1.47c-0.33,2.81-0.74,5.6-1.13,8.4c-0.77,5.52-1.55,11.04-2.28,16.56c-0.06,0.45,0.16,1.03,0.45,1.4
		c1.52,2.01,2.29,4.23,2.23,6.76c-0.06,2.38-0.01,4.76-0.01,7.13c0.83,0.2,1.6,0.3,2.29,0.58c2.5,1.04,3.95,2.93,4.07,5.65
		c0.11,2.54,0.04,5.09,0.04,7.64c0,1.11-0.56,1.57-1.67,1.57c-9.91-0.02-19.81-0.01-29.72-0.01c-1.33,0-1.71-0.4-1.72-1.74
		c-0.01-2.14,0-4.29,0-6.43c0-4.18,2.05-6.56,6.33-7.18c0-1.21-0.02-2.45,0.01-3.69c0.04-1.82-0.02-3.65,0.2-5.44
		c0.34-2.83,1.84-5.03,4.11-6.75c0.39-0.3,0.75-0.85,0.82-1.33c0.9-6.07,1.74-12.15,2.6-18.23c0.46-3.28,0.94-6.56,1.33-9.84
		c0.07-0.6-0.12-1.37-0.47-1.85c-3.41-4.55-2.74-10.78,1.6-14.24c4.45-3.54,10.63-2.89,14.34,1.48c0.33,0.39,1,0.73,1.49,0.7
		c6.33-0.37,12.67-0.79,18.99-1.25c0.4-0.03,0.87-0.5,1.13-0.88c2.38-3.55,5.71-5.28,9.93-4.76c4.26,0.53,7.15,3.02,8.49,7.14
		c1.33,4.07-0.18,8.58-3.77,11.16c-0.69,0.49-0.9,0.99-0.89,1.79c0.04,2.91,0.04,5.82,0,8.73c-0.01,0.67-0.11,1.39-0.37,2
		c-0.91,2.06-1,2.36-0.75,4.76c1.14,0,2.29-0.01,3.45,0c2.47,0.02,4.01,1.56,4.03,4c0,0.77,0.14,1.58-0.05,2.29
		c-0.14,0.49-0.68,1.12-1.15,1.23c-0.78,0.18-1.25-0.41-1.27-1.23c-0.02-0.77,0.01-1.54-0.02-2.3c-0.03-0.77-0.4-1.36-1.22-1.4
		c-1.24-0.06-2.48-0.01-3.85-0.01c0,1.96,0,3.81,0,5.66c0,1.55-0.4,1.95-1.91,1.96c-1.33,0-2.67,0.01-4-0.01
		c-1.36-0.01-1.79-0.44-1.8-1.83c-0.01-1.89,0-3.78,0-5.79c-1.35,0-2.56-0.03-3.76,0.01c-0.87,0.03-1.32,0.59-1.33,1.43
		c-0.02,4.97-0.02,9.95,0,14.92c0,0.9,0.51,1.44,1.44,1.44c4.97,0.01,9.95,0.01,14.92,0c1.07,0,1.51-0.63,1.52-1.63
		c0.01-2.26,0.02-4.53,0-6.79c-0.01-0.9,0.16-1.7,1.22-1.72c1.05-0.02,1.28,0.76,1.27,1.67c-0.02,2.39,0.01,4.77-0.01,7.16
		c-0.02,2.2-1.49,3.82-3.68,3.84c-5.17,0.06-10.35,0.05-15.53,0c-2.12-0.02-3.64-1.63-3.64-3.75c-0.02-5.13-0.02-10.27,0-15.4
		c0.01-2.07,1.6-3.67,3.68-3.74C63.88,44.87,65.13,44.9,66.5,44.9z M11.88,88.1c9.33,0,18.59,0,27.91,0c0-2.29,0.08-4.47-0.02-6.65
		c-0.09-1.85-1.63-3.35-3.52-3.37c-6.95-0.06-13.91-0.06-20.86-0.02c-1.76,0.01-3.34,1.32-3.46,2.99
		C11.75,83.37,11.88,85.71,11.88,88.1z M18.23,75.41c5.12,0,10.11,0,15.24,0c0-2.44,0.03-4.81-0.02-7.18
		c-0.02-0.88-0.15-1.78-0.38-2.62c-0.93-3.41-4.4-5.72-7.97-5.39c-3.54,0.33-6.61,3.17-6.83,6.62
		C18.09,69.65,18.23,72.48,18.23,75.41z M39.8,21.92c-0.02-4.19-3.48-7.62-7.68-7.59c-4.18,0.02-7.61,3.49-7.59,7.69
		c0.01,4.18,3.48,7.61,7.69,7.59C36.41,29.59,39.82,26.14,39.8,21.92z M70.38,11.79c-4.23,0.02-7.61,3.4-7.63,7.63
		c-0.01,4.2,3.41,7.63,7.63,7.63c4.2,0,7.64-3.44,7.63-7.64C78.01,15.2,74.58,11.78,70.38,11.79z M60.12,17.57
		c-6.01,0.4-12.05,0.81-18.05,1.22c0.12,1.77,0.23,3.36,0.35,5.05c6.08-0.41,12.13-0.82,18.06-1.22
		C60.35,20.87,60.24,19.31,60.12,17.57z M67.93,34.61c1.68,0,3.3,0,4.92,0c0-1.78,0-3.46,0-5.1c-1.67,0-3.25,0-4.92,0
		C67.93,31.17,67.93,32.87,67.93,34.61z M71.53,52.49c0-1.72,0-3.34,0-4.93c-0.83,0-1.57,0-2.31,0c0,1.7,0,3.28,0,4.93
		C70,52.49,70.72,52.49,71.53,52.49z M72.83,37.37c-1.69,0-3.3,0-4.9,0c-0.21,2.04,0.13,2.43,2.03,2.43c0.28,0,0.56,0,0.85,0
		C72.7,39.8,73.04,39.41,72.83,37.37z M69.22,42.42c0,0.83,0,1.61,0,2.41c0.82,0,1.56,0,2.29,0c0-0.84,0-1.61,0-2.41
		C70.7,42.42,70,42.42,69.22,42.42z"/>
	<path class="st0" d="M83.11,85.71c-3.02,0-5.84,0-8.87,0c0,1.03,0.01,2.06,0,3.09c-0.01,1.56-0.39,1.95-1.9,1.96
		c-1.37,0.01-2.75,0.01-4.12,0c-1.22-0.01-1.66-0.45-1.68-1.69c-0.02-1.08,0-2.17,0-3.32c-2.95,0-5.8,0-8.88,0
		c0,1.07,0.01,2.14,0,3.21c-0.02,1.43-0.38,1.79-1.79,1.8c-1.37,0.01-2.75,0.01-4.12,0c-1.27-0.01-1.71-0.41-1.72-1.63
		c-0.02-3.15-0.02-6.31-0.01-9.46c0.01-1.24,0.42-1.66,1.7-1.66c12.45,0,24.9,0,37.35,0.02c1.34,0,1.7,0.41,1.71,1.76
		c0.01,3.07,0.01,6.14,0,9.22c0,1.34-0.39,1.74-1.72,1.75c-1.41,0.01-2.83,0.01-4.24,0c-1.25-0.01-1.65-0.41-1.68-1.68
		C83.09,87.99,83.11,86.91,83.11,85.71z M88.15,80.63c-11.88,0-23.66,0-35.5,0c0,0.84,0,1.61,0,2.39c11.88,0,23.66,0,35.5,0
		C88.15,82.21,88.15,81.49,88.15,80.63z M55.05,85.76c-0.88,0-1.65,0-2.42,0c0,0.84,0,1.58,0,2.33c0.85,0,1.62,0,2.42,0
		C55.05,87.27,55.05,86.56,55.05,85.76z M69.19,88.12c0.86,0,1.59,0,2.32,0c0-0.86,0-1.63,0-2.35c-0.84,0-1.58,0-2.32,0
		C69.19,86.58,69.19,87.29,69.19,88.12z M85.74,85.73c0,0.87,0,1.61,0,2.38c0.84,0,1.61,0,2.39,0c0-0.84,0-1.58,0-2.38
		C87.32,85.73,86.57,85.73,85.74,85.73z"/>
	<path class="st0" d="M74.21,62.7c-0.48,0-1.06,0.16-1.43-0.04c-0.46-0.25-1.06-0.81-1.05-1.22c0.01-0.42,0.63-1.08,1.08-1.18
		c0.89-0.19,1.87-0.18,2.77,0c0.44,0.09,1.09,0.79,1.05,1.15c-0.05,0.47-0.63,0.98-1.11,1.26c-0.33,0.2-0.87,0.04-1.31,0.04
		C74.21,62.71,74.21,62.7,74.21,62.7z"/>
	<path class="st0" d="M19.42,67.37c0.09-2.02,1.16-3.95,3.38-5.15c2.22-1.2,4.43-1,6.55,0.33c0.24,0.15,0.59,0.32,0.63,0.54
		c0.11,0.57,0.3,1.29,0.05,1.71c-0.17,0.29-1.06,0.33-1.56,0.21c-0.84-0.2-1.6-0.83-2.43-0.92c-2.09-0.21-3.81,1.3-4.02,3.33
		c-0.21,2.03,1.24,3.93,3.2,4.18c2.1,0.27,3.97-1.08,4.36-3.13c0.04-0.2,0.03-0.4,0.05-0.6c0.07-0.81,0.54-1.33,1.32-1.28
		c0.85,0.05,1.34,0.66,1.2,1.51c-0.16,0.94-0.35,1.93-0.77,2.76c-1.29,2.55-4.26,3.86-6.94,3.2C21.41,73.29,19.44,70.85,19.42,67.37
		z"/>
	<path class="st0" d="M32.23,25.75c1.94-0.02,3.46-1.39,3.7-3.32c0.16-1.24,0.73-1.89,1.53-1.74c0.83,0.16,1.23,0.99,1.02,2.15
		c-0.59,3.27-3.25,5.57-6.4,5.53c-3.15-0.04-5.77-2.42-6.27-5.68c-0.36-2.37,1.05-5.08,3.28-6.29c2.3-1.25,5.2-0.99,7.05,0.6
		c0.64,0.55,0.9,1.2,0.37,1.9c-0.59,0.77-1.29,0.56-2.02,0.06c-1.61-1.1-3.36-1.06-4.71,0.03c-1.31,1.05-1.77,2.81-1.15,4.38
		C29.22,24.87,30.58,25.77,32.23,25.75z"/>
	<path class="st0" d="M64.04,19.44c0.04-2.52,1.15-4.45,3.37-5.62c2.21-1.17,4.44-1.03,6.55,0.35c0.76,0.49,1.44,1.11,0.83,2.08
		c-0.61,0.97-1.4,0.64-2.18,0.1c-1.4-0.97-2.86-1.02-4.31-0.08c-1.26,0.81-1.98,2.41-1.69,3.76c0.36,1.72,1.41,2.78,3.12,3.17
		c2.12,0.49,4.14-1.16,4.51-3.66c0.16-1.05,0.83-1.67,1.57-1.26c0.44,0.24,0.86,0.96,0.87,1.48c0.09,2.42-1.76,4.83-4.18,5.68
		c-2.51,0.87-5.36,0.07-7.02-1.97C64.53,22.29,63.99,20.97,64.04,19.44z"/>
</g>
</svg>
