<?xml version="1.0" encoding="utf-8"?>
<!-- Generator: Adobe Illustrator 24.0.1, SVG Export Plug-In . SVG Version: 6.00 Build 0)  -->
<svg version="1.1" id="Layer_1" xmlns="http://www.w3.org/2000/svg" xmlns:xlink="http://www.w3.org/1999/xlink" x="0px" y="0px"
	 viewBox="0 0 100 100" style="enable-background:new 0 0 100 100;" xml:space="preserve">
<style type="text/css">
	.st0{fill:#FFFFFF;}
</style>
<g>
	<path class="st0" d="M33.42,70.4c2.63,0,5.09,0,7.66,0c0,5.07,0,10.13,0,15.23c1.28,0,2.46,0,3.72,0c-0.1-0.22-0.18-0.42-0.29-0.62
		c-1.92-3.44-0.46-7.65,3.21-9.04c0.7-0.27,0.76-0.59,0.64-1.2c-1.85-9.85-3.7-19.69-5.54-29.54c-0.29-1.52-0.57-3.04-0.86-4.56
		c-0.44-2.3-1.85-3.46-4.2-3.46c-5.17,0-10.33-0.01-15.5,0.01c-0.64,0-1.06-0.19-1.48-0.66c-3.27-3.72-6.58-7.41-9.84-11.13
		c-0.27-0.3-0.39-0.78-0.46-1.2c-0.33-1.93,0.35-3.41,1.73-4.85c3-3.14,5.8-6.47,8.71-9.69c0.26-0.29,0.75-0.54,1.14-0.54
		c13.76-0.03,27.53-0.02,41.29-0.02c0.21,0,0.41,0.02,0.72,0.03c0,6.16,0,12.27,0,18.51c6.7-8.51,17.31-6.44,21.95-1.15
		c5,5.69,5.1,15.13-2.18,20.8c0.49,0.09,0.92,0.15,1.34,0.25c3.18,0.75,5.14,3.85,4.19,6.96c-1.27,4.15-2.67,8.26-4.12,12.35
		c-0.8,2.25-2.88,3.49-5.47,3.5c-9.48,0.01-18.96,0-28.44,0c-0.36,0-0.72,0-1.18,0c0.3,1.65,0.56,3.2,0.89,4.73
		c0.03,0.16,0.45,0.34,0.7,0.35c1.73,0.03,3.46,0.02,5.2,0.02c7.02,0,14.04-0.01,21.06,0.01c3.62,0.01,6.44,2.77,6.49,6.27
		c0.04,2.64-1.55,5.03-3.98,6.01c-2.49,1-5.29,0.37-7.1-1.59c-1.82-1.98-2.2-4.79-0.97-7.2c0.14-0.27,0.29-0.52,0.48-0.87
		c-5.92,0-11.76,0-17.66,0c0.07,0.15,0.11,0.29,0.18,0.41c2.59,4.61-0.4,9.72-5.71,9.73c-10.88,0.01-21.75,0-32.63,0
		c-2.18,0-4.36,0-6.59,0c0-0.86,0-1.64,0-2.53c0.8,0,1.6,0,2.48,0c0-6.84,0-13.57,0-20.37c2.58,0,5.08,0,7.66,0
		c0,6.74,0,13.47,0,20.28c0.87,0,1.67,0,2.54,0c0-9.28,0-18.56,0-27.93c2.57,0,5.07,0,7.68,0c0,9.3,0,18.6,0,27.95
		c0.88,0,1.66,0,2.55,0C33.42,80.58,33.42,75.52,33.42,70.4z M61.49,11.75c-12.8,0-25.5,0-38.2,0c0,7.65,0,15.23,0,22.82
		c12.76,0,25.47,0,38.2,0C61.49,26.94,61.49,19.38,61.49,11.75z M75.58,47.4c6.3-0.01,11.47-5.2,11.46-11.51
		c-0.01-6.28-5.18-11.46-11.41-11.45c-6.46,0.01-11.55,5.12-11.54,11.59C64.08,42.26,69.3,47.41,75.58,47.4z M45.89,47.33
		c7.1,0,14.19,0,21.46,0c-3.41-2.64-5.31-5.98-5.79-10.06c-6.12,0-12.14,0-18.16,0C45.04,40.46,44.92,44.02,45.89,47.33z
		 M20.61,32.48c0-6.3,0-12.37,0-18.64c-0.26,0.29-0.39,0.45-0.53,0.6c-2.16,2.43-4.32,4.85-6.47,7.28c-0.85,0.96-0.85,1.92,0,2.88
		c0.84,0.96,1.69,1.91,2.54,2.86C17.59,29.09,19.04,30.72,20.61,32.48z M28.26,85.66c0-8.54,0-16.99,0-25.43c-0.85,0-1.63,0-2.41,0
		c0,8.51,0,16.96,0,25.43C26.68,85.66,27.44,85.66,28.26,85.66z M50.05,85.68c2.09-0.01,3.81-1.75,3.8-3.84
		c-0.01-2.1-1.74-3.81-3.84-3.8c-2.09,0.01-3.81,1.75-3.8,3.84C46.23,83.98,47.96,85.69,50.05,85.68z M81.93,81.83
		c-0.01-2.1-1.74-3.8-3.84-3.79c-2.09,0.01-3.81,1.75-3.79,3.84c0.01,2.1,1.75,3.81,3.84,3.8C80.22,85.67,81.94,83.93,81.93,81.83z
		 M15.65,67.86c0,5.98,0,11.88,0,17.78c0.85,0,1.62,0,2.41,0c0-5.95,0-11.85,0-17.78C17.24,67.86,16.48,67.86,15.65,67.86z
		 M36.07,72.95c0,4.28,0,8.48,0,12.68c0.85,0,1.62,0,2.41,0c0-4.25,0-8.45,0-12.68C37.65,72.95,36.9,72.95,36.07,72.95z
		 M79.41,60.16c1.74,0,3.4,0.01,5.07-0.01c0.16,0,0.41-0.18,0.46-0.32c0.53-1.54,1.03-3.1,1.56-4.69c-2.43,0-4.74,0-7.09,0
		C79.41,56.81,79.41,58.41,79.41,60.16z M53.79,60.12c0-1.72,0-3.36,0-4.99c-2.2,0-4.32,0-6.51,0c0.32,1.71,0.63,3.33,0.95,4.99
		C50.1,60.12,51.9,60.12,53.79,60.12z M61.44,60.14c0-1.74,0-3.38,0-5.02c-1.7,0-3.32,0-4.96,0c0,1.71,0,3.35,0,5.02
		C58.16,60.14,59.77,60.14,61.44,60.14z M69.13,55.13c-1.69,0-3.34,0-4.98,0c0,1.71,0,3.36,0,4.98c1.7,0,3.33,0,4.98,0
		C69.13,58.41,69.13,56.79,69.13,55.13z M76.75,60.12c0-1.72,0-3.37,0-4.99c-1.7,0-3.33,0-4.98,0c0,1.69,0,3.32,0,4.99
		C73.45,60.12,75.07,60.12,76.75,60.12z M56.48,62.75c0,1.73,0,3.37,0,5.02c1.69,0,3.32,0,4.97,0c0-1.7,0-3.35,0-5.02
		C59.77,62.75,58.17,62.75,56.48,62.75z M64.1,67.75c1.73,0,3.38,0,5.02,0c0-1.7,0-3.32,0-4.96c-1.7,0-3.35,0-5.02,0
		C64.1,64.47,64.1,66.07,64.1,67.75z M76.77,67.78c0-1.74,0-3.37,0-4.98c-1.71,0-3.36,0-4.98,0c0,1.71,0,3.33,0,4.98
		C73.48,67.78,75.11,67.78,76.77,67.78z M53.83,62.77c-1.72,0-3.38,0-5.1,0c0.28,1.57,0.55,3.09,0.85,4.6
		c0.03,0.17,0.29,0.42,0.45,0.43c1.26,0.04,2.52,0.02,3.8,0.02C53.83,66.08,53.83,64.48,53.83,62.77z M46.35,50
		c0.11,0.64,0.25,1.22,0.32,1.82c0.06,0.52,0.28,0.71,0.82,0.69c1.12-0.04,2.24-0.01,3.36-0.01c0.99,0,1.97,0,2.96,0
		c0-0.91,0-1.69,0-2.5C51.32,50,48.88,50,46.35,50z M79.39,62.75c0,0.89,0,1.7,0,2.51c0,0.84,0,1.68,0,2.5
		c2.89,0.27,3.8-1.62,4.41-5.01C82.38,62.75,80.96,62.75,79.39,62.75z M79.46,49.97c0,0.9,0,1.7,0,2.5c2.51,0,4.96,0,7.41,0
		c-0.21-1.4-1.29-2.43-2.72-2.49C82.6,49.92,81.06,49.97,79.46,49.97z M71.77,50.01c0,0.85,0,1.63,0,2.44c1.69,0,3.34,0,5,0
		c0-0.84,0-1.61,0-2.44C75.1,50.01,73.48,50.01,71.77,50.01z M64.13,50.01c0,0.89,0,1.66,0,2.43c1.71,0,3.36,0,4.99,0
		c0-0.85,0-1.63,0-2.43C67.43,50.01,65.81,50.01,64.13,50.01z M61.47,50.02c-1.69,0-3.34,0-4.98,0c0,0.86,0,1.66,0,2.42
		c1.7,0,3.33,0,4.98,0C61.47,51.61,61.47,50.83,61.47,50.02z"/>
	<path class="st0" d="M38.38,32.74c-0.78-0.45-1.45-0.84-2.22-1.28c3.4-5.96,6.77-11.85,10.2-17.85c0.74,0.42,1.43,0.82,2.21,1.27
		C45.17,20.84,41.81,26.73,38.38,32.74z"/>
	<path class="st0" d="M50.07,29.54c-2.1,0.02-3.84-1.68-3.87-3.79c-0.03-2.1,1.68-3.86,3.78-3.86c2.12-0.01,3.85,1.68,3.87,3.78
		C53.88,27.77,52.17,29.52,50.07,29.54z M50.07,24.45c-0.68-0.02-1.29,0.57-1.3,1.25c-0.01,0.64,0.54,1.23,1.18,1.27
		c0.67,0.05,1.31-0.53,1.34-1.21C51.33,25.1,50.74,24.47,50.07,24.45z"/>
	<path class="st0" d="M34.69,16.79c2.12-0.01,3.84,1.68,3.85,3.8c0.02,2.1-1.7,3.84-3.8,3.86c-2.11,0.01-3.84-1.69-3.85-3.8
		S32.59,16.8,34.69,16.79z M34.65,21.87c0.66,0.04,1.3-0.54,1.33-1.21c0.03-0.67-0.57-1.29-1.24-1.31
		c-0.63-0.02-1.23,0.53-1.28,1.17C33.41,21.18,33.98,21.83,34.65,21.87z"/>
	<path class="st0" d="M74.28,29.49c0-0.83,0-1.61,0-2.44c0.85,0,1.62,0,2.51,0c0,0.77,0,1.57,0,2.43c1.27,0.09,2.42,0.37,3.09,1.41
		c0.44,0.68,0.66,1.51,1.04,2.43c-1.09,0-1.89,0-2.76,0c-0.03-1.08-0.74-1.28-1.67-1.22c-0.73,0.04-1.46,0.02-2.19,0
		c-0.61-0.02-1.13,0.14-1.25,0.79c-0.12,0.67,0.34,0.97,0.91,1.16c1.27,0.41,2.54,0.84,3.81,1.25c1.99,0.65,3.08,2.12,2.88,3.89
		c-0.2,1.78-1.47,2.9-3.56,3.14c-0.05,0.01-0.11,0.04-0.23,0.09c0,0.75,0,1.53,0,2.38c-0.87,0-1.67,0-2.57,0c0-0.81,0-1.62,0-2.41
		c-3.05-0.43-3.99-1.72-3.8-5.11c0.79,0,1.59,0,2.52,0c0,0.42,0,0.86,0,1.3c0,0.73,0.35,1.15,1.1,1.16
		c0.97,0.01,1.95,0.08,2.91-0.03c0.38-0.04,0.95-0.47,1-0.78c0.05-0.31-0.38-0.89-0.73-1.04c-1.26-0.52-2.57-0.91-3.87-1.33
		c-2.07-0.67-3.16-2.12-2.95-3.92C70.69,30.83,71.99,29.72,74.28,29.49z"/>
</g>
</svg>
