<?xml version="1.0" encoding="utf-8"?>
<!-- Generator: Adobe Illustrator 24.0.1, SVG Export Plug-In . SVG Version: 6.00 Build 0)  -->
<svg version="1.1" id="Layer_1" xmlns="http://www.w3.org/2000/svg" xmlns:xlink="http://www.w3.org/1999/xlink" x="0px" y="0px"
	 viewBox="0 0 100 100" style="enable-background:new 0 0 100 100;" xml:space="preserve">
<style type="text/css">
	.st0{fill:#FFFFFF;}
</style>
<g>
	<path class="st0" d="M25.91,72.88c-3.86-2.32-7.5-4.49-11.1-6.72c-0.38-0.23-0.74-0.85-0.74-1.28c0.05-8.01-0.26-16.05,0.35-24.01
		c1.2-15.69,14.95-29.48,30.57-31.28c16.62-1.92,30.52,5.65,37.82,20.67c2.26,4.66,3.22,9.65,3.25,14.81
		c0.04,6.43,0.03,12.87-0.01,19.3c0,0.58-0.22,1.43-0.63,1.7c-3.62,2.29-7.31,4.48-11.31,6.9c0-4.31,0-8.28,0-12.25c0-4,0-8,0-12.32
		c2.44,0.96,4.7,1.85,7.09,2.79c0.74-9.99-1.03-19.03-7.79-26.57c-0.49-0.54-1.42-0.97-2.15-0.98c-14.14-0.06-28.29-0.06-42.43,0
		c-0.72,0-1.64,0.46-2.13,1c-5.33,5.96-7.75,13.05-7.9,20.98c-0.03,1.76,0,3.51,0,5.59c2.44-0.95,4.71-1.83,7.12-2.77
		C25.91,56.61,25.91,64.59,25.91,72.88z M65.96,18.65c-8.99-6.36-24.12-5.78-31.65,0C44.82,18.65,55.24,18.65,65.96,18.65z"/>
	<path class="st0" d="M59.68,74.04c0-8.84,0-17.5,0-26.29c3.13,0,6.26,0,9.51,0c0,12.68,0,25.33,0,38.2c-3.87,0-7.77,0-11.88,0
		c0,1.69,0,3.18,0,4.75c-4.9,0-9.6,0-14.39,0c0-4.75,0-9.4,0-14.17c4.72,0,9.43,0,14.32,0c0,1.52,0,3.01,0,4.61
		c2.46,0,4.73,0,7.09,0c0-2.37,0-4.64,0-7.1C62.75,74.04,61.26,74.04,59.68,74.04z"/>
	<path class="st0" d="M30.95,47.66c3.18,0,6.24,0,9.42,0c0,8.78,0,17.47,0,26.26c-3.14,0-6.21,0-9.42,0
		C30.95,65.23,30.95,56.54,30.95,47.66z"/>
</g>
</svg>
